<svg width="94" height="94" viewBox="0 0 94 94" fill="none" xmlns="http://www.w3.org/2000/svg">
<path d="M13.0465 69.5105C12.4541 68.6753 12.1284 67.8012 12.0695 66.8884C12.0167 65.9843 12.2161 65.104 12.6678 64.2474C13.1344 63.3934 13.8375 62.6331 14.7772 61.9666C15.7168 61.3002 16.6624 60.891 17.614 60.7392C18.5717 60.596 19.4685 60.6988 20.3044 61.0476C21.1464 61.405 21.8636 62.0013 22.456 62.8366C23.1039 63.7501 23.4393 64.7023 23.462 65.6931C23.4848 66.6839 23.2008 67.6111 22.6102 68.4747L21.4466 67.6915C21.8778 67.0456 22.0877 66.3736 22.0764 65.6755C22.0738 64.9712 21.8349 64.284 21.3597 63.6141C20.9216 62.9964 20.3911 62.5619 19.7682 62.3106C19.1453 62.0593 18.4747 61.9988 17.7563 62.129C17.0528 62.2619 16.3313 62.5905 15.5918 63.1151C14.8522 63.6396 14.2991 64.215 13.9325 64.8412C13.572 65.4761 13.4074 66.129 13.4387 66.8C13.4699 67.4709 13.7046 68.1152 14.1428 68.733C14.6179 69.4029 15.1874 69.8555 15.8513 70.0908C16.5151 70.3262 17.2188 70.3502 17.9621 70.163L18.3296 71.5108C17.3281 71.7765 16.3592 71.738 15.4229 71.3951C14.4866 71.0523 13.6945 70.424 13.0465 69.5105ZM21.756 79.1022C21.16 78.6703 20.7247 78.144 20.45 77.5234C20.1901 76.9004 20.1079 76.2413 20.2032 75.5464C20.2985 74.8514 20.5777 74.1843 21.0409 73.5452C21.5041 72.906 22.0437 72.4342 22.6596 72.1297C23.2904 71.8228 23.9391 71.7002 24.6058 71.7618C25.2874 71.821 25.9305 72.0697 26.5351 72.5079C27.1397 72.9461 27.5676 73.4735 27.8188 74.0903C28.0849 74.7047 28.1703 75.3594 28.075 76.0544C27.9859 76.7407 27.7098 77.4035 27.2466 78.0426C26.7834 78.6817 26.2364 79.1548 25.6056 79.4617C24.9811 79.7599 24.3323 79.8825 23.6594 79.8296C22.9864 79.7766 22.3519 79.5341 21.756 79.1022ZM22.4602 78.1306C22.8661 78.4248 23.2848 78.5833 23.7161 78.6061C24.1624 78.6265 24.5928 78.5234 25.0073 78.2969C25.428 78.0617 25.8074 77.7109 26.1454 77.2445C26.4896 76.7695 26.7049 76.2998 26.7912 75.8354C26.8837 75.3623 26.8477 74.9212 26.6831 74.5121C26.5272 74.1093 26.2462 73.7608 25.8403 73.4666C25.4257 73.1662 24.9953 73.0057 24.549 72.9853C24.109 72.9562 23.6818 73.0549 23.2673 73.2815C22.8528 73.508 22.4735 73.8588 22.1292 74.3339C21.7912 74.8003 21.5759 75.27 21.4834 75.743C21.3971 76.2074 21.4331 76.6485 21.5914 77.0662C21.756 77.4753 22.0456 77.8301 22.4602 78.1306ZM29.2051 83.9283L31.7725 76.4698L33.0585 76.9124L32.5117 78.501L32.1726 78.5027C32.4458 78.1681 32.7485 77.9113 33.0808 77.7324C33.4166 77.5434 33.7803 77.4373 34.1718 77.4141C34.5668 77.3809 34.9711 77.4354 35.3846 77.5778C36.2015 77.859 36.7587 78.3215 37.056 78.9653C37.3567 79.5991 37.3457 80.3849 37.0228 81.3229L35.3928 86.0582L34.1069 85.6156L35.5754 81.3493C35.8358 80.5928 35.8856 79.9895 35.7247 79.5393C35.5773 79.0824 35.2213 78.7568 34.6565 78.5624C34.2429 78.4201 33.857 78.3944 33.4985 78.4853C33.1501 78.5797 32.8291 78.8077 32.5355 79.1691C32.2453 79.5205 31.9909 80.0138 31.7722 80.6493L30.4911 84.3709L29.2051 83.9283ZM43.1236 87.862C42.7515 87.8316 42.4169 87.7348 42.1199 87.5714C41.8344 87.3983 41.6195 87.1453 41.4755 86.8125C41.3314 86.4797 41.2797 86.0635 41.3205 85.5638L41.9695 77.6062L43.4034 76.9526L42.7205 85.3248C42.685 85.7607 42.7263 86.1065 42.8446 86.3623C42.9637 86.6075 43.204 86.7448 43.5655 86.7743C43.6718 86.783 43.8002 86.7827 43.9508 86.7736C44.1022 86.7539 44.2648 86.7297 44.4383 86.701L44.3525 87.7535C44.1444 87.8115 43.9328 87.8477 43.7175 87.8623C43.5129 87.8777 43.315 87.8776 43.1236 87.862ZM40.0854 80.6311L40.1712 79.5786L44.9872 79.9714L44.9014 81.0239L40.0854 80.6311ZM54.3013 87.0768L53.942 85.5311L53.3804 82.2184C53.2788 81.6189 53.0321 81.1847 52.6403 80.9158C52.259 80.645 51.7424 80.5649 51.0903 80.6754C50.6697 80.7467 50.2904 80.903 49.9527 81.1442C49.6131 81.3748 49.3046 81.7246 49.027 82.1936L47.9257 81.5364C48.2713 80.9585 48.7032 80.5067 49.2214 80.1808C49.7378 79.8445 50.3272 79.6201 50.9898 79.5078C52.0099 79.3349 52.8432 79.4641 53.4897 79.8955C54.1362 80.3268 54.5415 81.0262 54.7055 81.9938L55.5318 86.8682L54.3013 87.0768ZM51.7514 87.6389C51.1625 87.7387 50.6302 87.7262 50.1547 87.6012C49.6878 87.464 49.3023 87.2318 48.998 86.9047C48.7042 86.5759 48.5163 86.1695 48.4343 85.6858C48.3612 85.2546 48.3839 84.8775 48.5022 84.5545C48.6293 84.2192 48.8153 83.9443 49.0602 83.7297C49.3034 83.5045 49.5931 83.331 49.9294 83.2091C50.2745 83.0748 50.6416 82.9748 51.0307 82.9088L53.5547 82.481L53.7259 83.4905L51.3912 83.8863C51.1598 83.9255 50.9215 83.9876 50.6762 84.0724C50.431 84.1573 50.2253 84.2841 50.0591 84.4529C49.9403 84.5812 49.8521 84.7314 49.7947 84.9034C49.7478 85.0736 49.7422 85.2639 49.7779 85.4743C49.8474 85.8844 50.0552 86.1846 50.4011 86.3748C50.7471 86.5649 51.1778 86.6164 51.6931 86.529C52.1243 86.4559 52.4965 86.2901 52.8096 86.0314C53.1333 85.771 53.3709 85.4494 53.5224 85.0667C53.6827 84.6717 53.7254 84.2534 53.6505 83.8117L54.2989 84.286C54.3303 84.8541 54.2458 85.3769 54.0454 85.8544C53.8451 86.3319 53.5498 86.7282 53.1597 87.0431C52.7782 87.3458 52.3088 87.5444 51.7514 87.6389ZM63.7283 84.3418C63.2006 84.5982 62.6839 84.7308 62.1781 84.7394C61.682 84.7434 61.2132 84.6451 60.7718 84.4445C60.3257 84.2343 59.9235 83.9436 59.5651 83.5722C59.2067 83.2009 58.9063 82.7658 58.6638 82.2669C58.426 81.7776 58.2718 81.2774 58.2012 80.7661C58.1306 80.2549 58.1529 79.7637 58.2679 79.2927C58.3782 78.8122 58.5882 78.378 58.8979 77.9903C59.2172 77.5979 59.6406 77.2735 60.1683 77.0171C60.8398 76.6907 61.5043 76.5694 62.1617 76.6531C62.8287 76.7321 63.4453 77.0491 64.0115 77.6041L63.1351 78.546C62.805 78.2084 62.4306 77.9871 62.0119 77.8822C61.5933 77.7773 61.1489 77.8391 60.6789 78.0676C60.2088 78.296 59.8808 78.6096 59.6951 79.0082C59.5093 79.4069 59.4353 79.8402 59.473 80.3081C59.5202 80.7714 59.6534 81.2285 59.8726 81.6794C60.0917 82.1303 60.3712 82.5222 60.7109 82.8552C61.0556 83.1739 61.442 83.3834 61.8703 83.4836C62.2938 83.5743 62.7406 83.5054 63.2107 83.2769C63.6808 83.0484 64.0063 82.742 64.1871 82.3576C64.3633 81.9636 64.4183 81.5277 64.3521 81.0499L65.6342 80.9427C65.7207 81.7308 65.5914 82.4163 65.2461 82.9992C64.9058 83.5679 64.3998 84.0154 63.7283 84.3418ZM72.9501 78.8284C72.6645 79.0688 72.3586 79.2355 72.0327 79.3285C71.708 79.4066 71.3774 79.3781 71.0407 79.2432C70.7041 79.1082 70.3744 78.8489 70.0516 78.4653L64.911 72.3565L65.4693 70.8829L70.8778 77.3101C71.1594 77.6447 71.4322 77.8612 71.6963 77.9596C71.9535 78.0499 72.2208 77.9783 72.4983 77.7448C72.5799 77.6761 72.671 77.5855 72.7715 77.4731C72.8652 77.3524 72.9636 77.2208 73.0667 77.0783L73.7466 77.8863C73.6396 78.0739 73.5148 78.2486 73.3722 78.4105C73.2377 78.5655 73.097 78.7048 72.9501 78.8284ZM65.7021 75.8312L65.0221 75.0232L68.7193 71.9121L69.3992 72.7201L65.7021 75.8312ZM86.2164 58.3506C85.8994 59.6347 85.3095 60.5329 84.4469 61.045C83.5869 61.5468 82.4838 61.6315 81.1375 61.2991L74.2251 59.5923L74.5627 58.2254L81.3197 59.8938C81.9721 60.0549 82.5414 60.1076 83.0276 60.0518C83.5164 59.9857 83.922 59.7892 84.2444 59.4623C84.5669 59.1354 84.8048 58.6613 84.9582 58.04C85.1116 57.4186 85.1217 56.8883 84.9885 56.4488C84.8475 55.9965 84.5761 55.6274 84.1743 55.3414C83.7724 55.0554 83.2453 54.8318 82.5929 54.6707L75.8514 53.0061L76.1851 51.6547L83.0198 53.3423C84.3867 53.6799 85.3431 54.2786 85.8889 55.1385C86.4269 55.9855 86.536 57.0562 86.2164 58.3506ZM87.9733 46.3861C88.0015 46.9187 87.947 47.4022 87.8097 47.8368C87.6725 48.2713 87.4789 48.65 87.2289 48.973C86.9784 49.2854 86.7088 49.54 86.4202 49.7368L85.5714 48.8364C85.9655 48.6126 86.2852 48.2966 86.5307 47.8884C86.7649 47.4701 86.8674 46.984 86.8381 46.4301C86.8116 45.9295 86.684 45.5357 86.4551 45.2487C86.2263 44.9617 85.9308 44.8278 85.5687 44.847C85.2704 44.8627 85.0409 44.9657 84.88 45.1558C84.7192 45.3459 84.5934 45.5928 84.5026 45.8967C84.4119 46.2006 84.3332 46.5306 84.2666 46.8866C84.2078 47.1888 84.1333 47.4971 84.0432 47.8117C83.9524 48.1156 83.8336 48.3942 83.6868 48.6477C83.54 48.9011 83.3427 49.1091 83.095 49.2718C82.8472 49.4344 82.5369 49.5256 82.1641 49.5453C81.5143 49.5797 80.9792 49.357 80.5586 48.8772C80.1268 48.3873 79.8892 47.7323 79.8458 46.9121C79.8142 46.3156 79.9133 45.7656 80.143 45.2621C80.3616 44.7485 80.7138 44.34 81.1998 44.0366L81.8845 44.8656C81.523 45.0983 81.2716 45.3947 81.1304 45.7546C80.978 46.1045 80.9128 46.4872 80.9348 46.9026C80.9568 47.318 81.0603 47.6597 81.2454 47.9276C81.4304 48.1955 81.6721 48.3216 81.9704 48.3058C82.194 48.294 82.3717 48.2205 82.5035 48.0854C82.6352 47.9502 82.7425 47.7576 82.8254 47.5076C82.9077 47.2469 82.9819 46.9332 83.048 46.5665C83.1051 46.2323 83.1779 45.892 83.2664 45.5455C83.3549 45.199 83.4767 44.8775 83.6319 44.5809C83.7871 44.2843 84.004 44.0431 84.2826 43.8575C84.55 43.6618 84.9074 43.5521 85.3547 43.5284C85.8447 43.5025 86.2826 43.6022 86.6684 43.8274C87.0541 44.0527 87.3601 44.3837 87.5861 44.8204C87.8121 45.257 87.9412 45.7789 87.9733 46.3861ZM78.9687 33.5237L78.823 34.3202L76.705 33.8506L77.1945 35.9759L76.3665 36.117L76.1768 33.9443L74.3331 35.0808L73.95 34.3423L75.9337 33.4756L74.267 32.0691L74.8666 31.4877L76.3146 33.0978L77.1508 31.096L77.8931 31.45L76.7833 33.3414L78.9687 33.5237ZM77.098 19.5212C77.8117 20.2555 78.2678 21.0691 78.4663 21.962C78.6574 22.8473 78.5956 23.7478 78.2808 24.6636C77.951 25.5792 77.373 26.4385 76.5469 27.2414C75.7209 28.0443 74.8493 28.5939 73.9324 28.8902C73.008 29.1787 72.1061 29.2149 71.2266 28.9988C70.3397 28.775 69.5394 28.2959 68.8257 27.5616C68.045 26.7585 67.5674 25.8691 67.3927 24.8936C67.2179 23.918 67.3561 22.9582 67.807 22.0142L69.0771 22.6093C68.7503 23.3137 68.6461 24.01 68.7645 24.6981C68.8753 25.3936 69.217 26.0359 69.7894 26.6249C70.3173 27.1679 70.9082 27.5158 71.5623 27.6684C72.2164 27.821 72.8884 27.7778 73.5782 27.5387C74.253 27.2993 74.9154 26.8637 75.5656 26.2318C76.2157 25.5998 76.6739 24.9463 76.9399 24.2712C77.1986 23.5884 77.2609 22.918 77.1269 22.2598C76.993 21.6016 76.6621 21.001 76.1342 20.4579C75.5618 19.869 74.9295 19.5092 74.2373 19.3787C73.5452 19.2482 72.8463 19.3325 72.1405 19.6318L71.5703 18.3564C72.5191 17.9399 73.4824 17.8291 74.4603 18.0241C75.4381 18.219 76.3174 18.7181 77.098 19.5212ZM67.0228 11.3782C67.6776 11.7142 68.188 12.168 68.5541 12.7395C68.9059 13.3157 69.0876 13.9545 69.0993 14.6559C69.111 15.3573 68.9367 16.0591 68.5763 16.7613C68.2159 17.4636 67.7545 18.0121 67.1922 18.4069C66.6156 18.8064 65.9931 19.0264 65.3248 19.0671C64.6421 19.1124 63.9687 18.9646 63.3044 18.6237C62.6401 18.2828 62.1368 17.8267 61.7945 17.2554C61.4379 16.6887 61.2538 16.0547 61.2421 15.3533C61.2255 14.6614 61.3974 13.9643 61.7578 13.2621C62.1182 12.5598 62.5867 12.009 63.1634 11.6095C63.7351 11.2196 64.3576 10.9995 65.0308 10.9494C65.704 10.8992 66.368 11.0421 67.0228 11.3782ZM66.4749 12.4458C66.0288 12.2169 65.5909 12.124 65.1611 12.1672C64.717 12.215 64.3073 12.3825 63.9322 12.6695C63.5522 12.9661 63.2307 13.3706 62.9677 13.883C62.6999 14.405 62.5587 14.902 62.5442 15.3742C62.5248 15.8558 62.6276 16.2862 62.8526 16.6654C63.0682 17.0398 63.3989 17.3414 63.845 17.5703C64.3005 17.8041 64.7503 17.8971 65.1945 17.8493C65.6338 17.811 66.041 17.6483 66.4161 17.3612C66.7912 17.0741 67.1127 16.6696 67.3806 16.1477C67.6435 15.6352 67.7847 15.1382 67.8041 14.6566C67.8186 14.1844 67.7158 13.754 67.4956 13.3653C67.2706 12.986 66.9304 12.6795 66.4749 12.4458ZM58.9257 7.74631L57.5403 15.5117L56.2015 15.2729L56.4965 13.619L56.8312 13.5649C56.613 13.9377 56.3536 14.2382 56.0528 14.4662C55.7502 14.7048 55.4073 14.8657 55.0241 14.949C54.6389 15.0429 54.2311 15.0514 53.8006 14.9746C52.95 14.8228 52.3281 14.4518 51.935 13.8616C51.54 13.2819 51.4296 12.5038 51.6039 11.5272L52.4834 6.59702L53.8223 6.83587L53.0298 11.2777C52.8893 12.0653 52.9333 12.6691 53.1618 13.0891C53.3779 13.5177 53.7799 13.7844 54.368 13.8893C54.7985 13.9662 55.1838 13.932 55.524 13.7868C55.8536 13.6397 56.1355 13.365 56.3699 12.9625C56.6023 12.5706 56.7775 12.0438 56.8956 11.3823L57.5868 7.50746L58.9257 7.74631ZM44.564 6.00547C44.9364 5.97824 45.2819 6.0225 45.6005 6.13823C45.9093 6.26539 46.1604 6.48231 46.354 6.78901C46.5475 7.09571 46.6626 7.49906 46.6991 7.99906L47.2814 15.9618L45.9651 16.8281L45.3525 8.45048C45.3206 8.01431 45.2265 7.67894 45.0703 7.44438C44.9149 7.22045 44.6564 7.12171 44.2947 7.14816C44.1883 7.15594 44.0614 7.17591 43.914 7.20808C43.7674 7.25089 43.6106 7.29979 43.4435 7.35479L43.3665 6.3016C43.5631 6.21236 43.7667 6.14399 43.9771 6.09652C44.1769 6.04982 44.3726 6.01947 44.564 6.00547ZM48.678 12.6832L48.7551 13.7364L43.9359 14.0888L43.8589 13.0356L48.678 12.6832ZM33.6414 8.50628L34.2357 9.97771L35.3032 13.1636C35.4964 13.7401 35.8073 14.1309 36.236 14.336C36.6546 14.5445 37.1774 14.5436 37.8045 14.3335C38.2091 14.198 38.5595 13.9849 38.8559 13.6944C39.1557 13.4139 39.4063 13.0206 39.6079 12.5143L40.7977 12.9931C40.5457 13.6175 40.189 14.1308 39.7275 14.5329C39.2694 14.9451 38.7217 15.258 38.0846 15.4715C37.1035 15.8002 36.2602 15.8016 35.5547 15.4755C34.8493 15.1494 34.3406 14.5211 34.0288 13.5906L32.458 8.90279L33.6414 8.50628ZM36.0736 7.55631C36.64 7.36653 37.1677 7.29655 37.6569 7.34638C38.1394 7.40971 38.5562 7.5794 38.9075 7.85544C39.2486 8.13488 39.4971 8.50721 39.653 8.97246C39.7919 9.38713 39.8279 9.76317 39.761 10.1006C39.6873 10.4515 39.5461 10.7519 39.3374 11.0019C39.1321 11.2619 38.8727 11.4782 38.5592 11.6507C38.2391 11.8368 37.8919 11.9925 37.5177 12.1179L35.0903 12.9312L34.765 11.9603L37.0103 11.2079C37.2328 11.1334 37.4586 11.0352 37.6878 10.9134C37.917 10.7916 38.1006 10.6345 38.2386 10.442C38.3362 10.2968 38.4 10.1348 38.4301 9.95595C38.4501 9.78052 38.4261 9.59166 38.3584 9.38938C38.2262 8.99493 37.9745 8.73054 37.6032 8.5962C37.232 8.46186 36.7986 8.47772 36.303 8.64378C35.8883 8.78272 35.5463 9.0042 35.2769 9.3082C34.9974 9.61559 34.8125 9.97006 34.722 10.3716C34.6248 10.7866 34.6474 11.2066 34.7898 11.6313L34.0758 11.2631C33.9568 10.7067 33.9594 10.1772 34.0834 9.67437C34.2074 9.17158 34.4378 8.7344 34.7745 8.36283C35.1045 8.00477 35.5375 7.73593 36.0736 7.55631ZM24.7506 12.6649C25.2324 12.3301 25.7225 12.1195 26.2209 12.033C26.7105 11.9526 27.1889 11.9775 27.6559 12.1076C28.1291 12.2465 28.5713 12.4718 28.9827 12.7834C29.394 13.0951 29.7579 13.4787 30.0744 13.9342C30.3848 14.381 30.6142 14.8515 30.7628 15.3458C30.9113 15.84 30.9651 16.3287 30.9241 16.8118C30.8891 17.3036 30.7485 17.765 30.5023 18.1958C30.2474 18.6327 29.879 19.0185 29.3972 19.3532C28.784 19.7792 28.1461 20.0015 27.4837 20.0202C26.8125 20.0449 26.1544 19.8267 25.5093 19.3656L26.2301 18.2999C26.6084 18.5826 27.0124 18.7435 27.4422 18.7826C27.872 18.8217 28.3015 18.6922 28.7308 18.394C29.16 18.0958 29.4357 17.7354 29.5578 17.3129C29.6798 16.8904 29.6862 16.4509 29.5769 15.9943C29.4587 15.5439 29.2567 15.1128 28.9706 14.7011C28.6846 14.2893 28.3481 13.9452 27.961 13.6685C27.5714 13.4067 27.1572 13.2593 26.7187 13.2263C26.2862 13.2021 25.8554 13.339 25.4261 13.6372C24.9969 13.9354 24.7225 14.2884 24.6031 14.6961C24.4898 15.1125 24.5026 15.5516 24.6417 16.0135L23.3914 16.3171C23.1844 15.5518 23.2066 14.8545 23.4579 14.2254C23.7065 13.611 24.1374 13.0909 24.7506 12.6649ZM16.4844 19.5286C16.7301 19.2476 17.007 19.0362 17.315 18.8946C17.624 18.768 17.9551 18.7458 18.3083 18.8279C18.6616 18.91 19.0269 19.116 19.4044 19.446L25.4154 24.7007L25.088 26.2421L18.7638 20.7136C18.4345 20.4258 18.1319 20.2533 17.8559 20.1963C17.588 20.1462 17.3347 20.2577 17.096 20.5308C17.0258 20.6111 16.9496 20.7145 16.8673 20.8409C16.7932 20.9744 16.716 21.1195 16.6358 21.276L15.8407 20.581C15.9179 20.3793 16.0146 20.1876 16.1309 20.0059C16.2402 19.8323 16.3581 19.6732 16.4844 19.5286ZM24.1044 21.3869L24.8994 22.0819L21.7192 25.7199L20.9242 25.0249L24.1044 21.3869ZM8.08653 34.6849C8.4362 33.4093 9.04872 32.5265 9.92407 32.0365C10.7966 31.5568 11.9015 31.5002 13.2389 31.8668L20.1056 33.7491L19.7333 35.107L13.0209 33.267C12.3729 33.0893 11.8051 33.0222 11.3176 33.0655C10.8273 33.1191 10.4169 33.3052 10.0862 33.6238C9.75554 33.9424 9.50561 34.4103 9.33642 35.0275C9.16722 35.6448 9.14361 36.1747 9.26559 36.6174C9.39504 37.0732 9.65696 37.4491 10.0514 37.7452C10.4458 38.0414 10.967 38.2783 11.6151 38.4559L18.3121 40.2917L17.9441 41.6342L11.1545 39.773C9.79663 39.4008 8.85583 38.7779 8.33213 37.9044C7.8159 37.044 7.73403 35.9708 8.08653 34.6849ZM6.02259 46.6023C6.00834 46.0691 6.07548 45.5872 6.22402 45.1564C6.37256 44.7256 6.57598 44.352 6.83428 44.0357C7.09287 43.73 7.36902 43.4825 7.66274 43.2933L8.48768 44.2156C8.08791 44.429 7.76001 44.7365 7.50399 45.1382C7.25891 45.5502 7.14379 46.0335 7.15861 46.5879C7.17201 47.0891 7.28933 47.4861 7.51057 47.7789C7.73181 48.0718 8.0237 48.2134 8.38624 48.2037C8.6848 48.1957 8.91696 48.0988 9.08272 47.913C9.24847 47.7271 9.38068 47.4835 9.47932 47.1821C9.57797 46.8807 9.66524 46.5529 9.74113 46.1988C9.80779 45.8982 9.8903 45.5919 9.98866 45.2798C10.0873 44.9784 10.2133 44.7029 10.3667 44.4534C10.5201 44.2039 10.7227 44.0011 10.9747 43.845C11.2266 43.6888 11.5391 43.6058 11.9123 43.5958C12.5628 43.5784 13.092 43.815 13.4999 44.3056C13.9188 44.8066 14.1392 45.4676 14.1611 46.2887C14.1771 46.8858 14.0637 47.433 13.8209 47.9303C13.589 48.4381 13.2262 48.8372 12.7325 49.1279L12.0696 48.2813C12.4371 48.058 12.6961 47.7683 12.8467 47.4122C13.0082 47.0664 13.0833 46.6856 13.0722 46.2698C13.0611 45.8539 12.9665 45.5096 12.7885 45.237C12.6105 44.9643 12.3722 44.832 12.0737 44.8399C11.8497 44.8459 11.6702 44.9147 11.535 45.0464C11.3998 45.1781 11.2875 45.3678 11.1981 45.6156C11.1089 45.8741 11.0266 46.1857 10.951 46.5506C10.8852 46.8831 10.8035 47.2214 10.706 47.5655C10.6085 47.9095 10.4783 48.2278 10.3154 48.5202C10.1525 48.8127 9.92936 49.0481 9.64602 49.2264C9.37363 49.4151 9.01352 49.5154 8.56568 49.5274C8.07519 49.5405 7.64006 49.4294 7.26031 49.1941C6.88055 48.9589 6.58339 48.62 6.36882 48.1776C6.15425 47.7352 6.03884 47.2101 6.02259 46.6023ZM12.9416 53.7825L13.2789 53.0463L15.2161 54.0228L15.2649 51.8424L16.1022 51.9095L15.7511 54.062L17.8179 53.4143L18.0074 54.2245L15.8714 54.5761L17.1406 56.3497L16.4163 56.7656L15.4093 54.8485L14.106 56.5829L13.4736 56.0571L15.0149 54.4971L12.9416 53.7825Z" fill="white"/>
</svg>
