<svg width="94" height="94" viewBox="0 0 94 94" fill="none" xmlns="http://www.w3.org/2000/svg">
<path d="M13.0466 69.511C12.4542 68.6757 12.1285 67.8017 12.0696 66.8889C12.0168 65.9848 12.2162 65.1044 12.668 64.2479C13.1346 63.3938 13.8377 62.6336 14.7773 61.9671C15.7169 61.3006 16.6626 60.8915 17.6141 60.7397C18.5719 60.5965 19.4687 60.6993 20.3045 61.048C21.1465 61.4055 21.8637 62.0018 22.4561 62.837C23.1041 63.7506 23.4394 64.7028 23.4622 65.6936C23.4849 66.6844 23.201 67.6116 22.6103 68.4751L21.4467 67.6919C21.8779 67.0461 22.0879 66.3741 22.0765 65.676C22.0739 64.9716 21.835 64.2845 21.3599 63.6146C20.9217 62.9969 20.3912 62.5624 19.7683 62.311C19.1455 62.0597 18.4748 61.9992 17.7564 62.1295C17.0529 62.2623 16.3314 62.591 15.5919 63.1156C14.8523 63.6401 14.2993 64.2155 13.9326 64.8417C13.5722 65.4766 13.4076 66.1295 13.4388 66.8004C13.4701 67.4714 13.7048 68.1157 14.1429 68.7334C14.6181 69.4034 15.1876 69.856 15.8514 70.0913C16.5153 70.3266 17.2189 70.3507 17.9622 70.1634L18.3298 71.5113C17.3282 71.777 16.3593 71.7385 15.423 71.3956C14.4867 71.0527 13.6946 70.4245 13.0466 69.511ZM21.7561 79.1027C21.1602 78.6708 20.7248 78.1445 20.4501 77.5239C20.1903 76.9008 20.108 76.2418 20.2033 75.5468C20.2986 74.8518 20.5779 74.1848 21.0411 73.5457C21.5043 72.9065 22.0438 72.4347 22.6597 72.1302C23.2905 71.8233 23.9392 71.7006 24.6059 71.7623C25.2875 71.8215 25.9306 72.0702 26.5352 72.5084C27.1398 72.9465 27.5677 73.474 27.8189 74.0908C28.085 74.7052 28.1704 75.3599 28.0751 76.0549C27.986 76.7412 27.7099 77.4039 27.2467 78.0431C26.7835 78.6822 26.2365 79.1552 25.6057 79.4621C24.9812 79.7604 24.3324 79.883 23.6595 79.83C22.9865 79.777 22.3521 79.5346 21.7561 79.1027ZM22.4603 78.131C22.8662 78.4252 23.2849 78.5837 23.7163 78.6065C24.1625 78.627 24.5929 78.5239 25.0074 78.2974C25.4281 78.0622 25.8075 77.7114 26.1455 77.245C26.4898 76.77 26.705 76.3002 26.7913 75.8358C26.8839 75.3628 26.8478 74.9217 26.6832 74.5126C26.5273 74.1098 26.2464 73.7613 25.8404 73.4671C25.4258 73.1666 24.9954 73.0062 24.5492 72.9858C24.1092 72.9567 23.6819 73.0554 23.2674 73.282C22.853 73.5085 22.4736 73.8593 22.1293 74.3343C21.7913 74.8007 21.576 75.2705 21.4835 75.7435C21.3972 76.2079 21.4332 76.649 21.5916 77.0667C21.7562 77.4758 22.0457 77.8306 22.4603 78.131ZM29.2053 83.9288L31.7727 76.4703L33.0586 76.9129L32.5118 78.5014L32.1728 78.5032C32.4459 78.1685 32.7486 77.9118 33.081 77.7328C33.4167 77.5439 33.7804 77.4378 34.1719 77.4146C34.5669 77.3814 34.9712 77.4359 35.3847 77.5783C36.2017 77.8595 36.7588 78.322 37.0561 78.9658C37.3569 79.5996 37.3458 80.3854 37.0229 81.3234L35.3929 86.0587L34.107 85.6161L35.5756 81.3497C35.8359 80.5933 35.8857 79.99 35.7248 79.5398C35.5775 79.0829 35.2214 78.7573 34.6566 78.5629C34.2431 78.4205 33.8571 78.3948 33.4986 78.4858C33.1503 78.5802 32.8293 78.8081 32.5356 79.1696C32.2455 79.5209 31.991 80.0143 31.7723 80.6497L30.4912 84.3714L29.2053 83.9288ZM43.1237 87.8625C42.7516 87.8321 42.4171 87.7353 42.12 87.5719C41.8345 87.3988 41.6197 87.1458 41.4756 86.813C41.3315 86.4802 41.2798 86.0639 41.3206 85.5643L41.9696 77.6067L43.4035 76.9531L42.7206 85.3253C42.6851 85.7612 42.7264 86.107 42.8447 86.3628C42.9638 86.608 43.2041 86.7453 43.5656 86.7748C43.6719 86.7834 43.8004 86.7832 43.9509 86.7741C44.1024 86.7543 44.2649 86.7301 44.4384 86.7015L44.3526 87.754C44.1445 87.8119 43.9329 87.8482 43.7177 87.8627C43.5131 87.8782 43.3151 87.8781 43.1237 87.8625ZM40.0855 80.6315L40.1713 79.579L44.9873 79.9718L44.9015 81.0243L40.0855 80.6315ZM54.3015 87.0773L53.9421 85.5316L53.3805 82.2189C53.2789 81.6194 53.0322 81.1852 52.6404 80.9162C52.2591 80.6455 51.7425 80.5654 51.0905 80.6759C50.6698 80.7472 50.2906 80.9035 49.9528 81.1446C49.6132 81.3753 49.3047 81.7251 49.0272 82.1941L47.9258 81.5369C48.2715 80.959 48.7033 80.5071 49.2215 80.1813C49.7379 79.8449 50.3274 79.6206 50.9899 79.5083C52.01 79.3354 52.8433 79.4646 53.4898 79.8959C54.1364 80.3273 54.5416 81.0267 54.7056 81.9943L55.5319 86.8687L54.3015 87.0773ZM51.7515 87.6394C51.1626 87.7392 50.6303 87.7266 50.1548 87.6017C49.6879 87.4644 49.3024 87.2323 48.9981 86.9052C48.7043 86.5763 48.5165 86.17 48.4345 85.6863C48.3614 85.2551 48.384 84.878 48.5024 84.555C48.6294 84.2197 48.8154 83.9448 49.0603 83.7301C49.3035 83.505 49.5932 83.3315 49.9296 83.2096C50.2747 83.0753 50.6418 82.9752 51.0309 82.9093L53.5549 82.4814L53.726 83.491L51.3913 83.8868C51.1599 83.926 50.9216 83.988 50.6764 84.0729C50.4311 84.1577 50.2254 84.2846 50.0593 84.4534C49.9404 84.5817 49.8522 84.7319 49.7948 84.9039C49.748 85.0741 49.7424 85.2644 49.778 85.4747C49.8475 85.8849 50.0553 86.1851 50.4013 86.3752C50.7473 86.5654 51.1779 86.6168 51.6932 86.5295C52.1244 86.4564 52.4966 86.2905 52.8098 86.0319C53.1335 85.7715 53.3711 85.4499 53.5226 85.0672C53.6828 84.6722 53.7255 84.2538 53.6506 83.8121L54.299 84.2865C54.3304 84.8545 54.2459 85.3773 54.0456 85.8549C53.8452 86.3324 53.55 86.7287 53.1598 87.0436C52.7783 87.3463 52.3089 87.5449 51.7515 87.6394ZM63.7284 84.3423C63.2008 84.5987 62.684 84.7312 62.1783 84.7399C61.6821 84.7438 61.2133 84.6455 60.7719 84.445C60.3258 84.2348 59.9236 83.9441 59.5652 83.5727C59.2068 83.2013 58.9064 82.7662 58.6639 82.2674C58.4261 81.7781 58.2719 81.2778 58.2013 80.7666C58.1308 80.2553 58.153 79.7642 58.268 79.2932C58.3783 78.8126 58.5884 78.3785 58.898 77.9908C59.2173 77.5984 59.6408 77.274 60.1684 77.0176C60.84 76.6912 61.5044 76.5698 62.1618 76.6535C62.8288 76.7326 63.4454 77.0496 64.0117 77.6046L63.1352 78.5465C62.8051 78.2088 62.4307 77.9876 62.0121 77.8827C61.5934 77.7778 61.1491 77.8396 60.679 78.0681C60.2089 78.2965 59.881 78.6101 59.6952 79.0087C59.5094 79.4074 59.4354 79.8407 59.4731 80.3086C59.5203 80.7719 59.6536 81.229 59.8727 81.6799C60.0918 82.1308 60.3713 82.5227 60.711 82.8557C61.0557 83.1744 61.4421 83.3839 61.8704 83.4841C62.2939 83.5748 62.7408 83.5058 63.2108 83.2774C63.6809 83.0489 64.0064 82.7425 64.1872 82.3581C64.3634 81.9641 64.4184 81.5282 64.3522 81.0504L65.6343 80.9432C65.7209 81.7313 65.5915 82.4168 65.2462 82.9997C64.9059 83.5683 64.4 84.0159 63.7284 84.3423ZM72.9502 78.8289C72.6646 79.0692 72.3588 79.236 72.0328 79.329C71.7081 79.4071 71.3775 79.3786 71.0409 79.2436C70.7042 79.1087 70.3745 78.8494 70.0517 78.4658L64.9111 72.357L65.4695 70.8834L70.8779 77.3105C71.1595 77.6452 71.4323 77.8617 71.6964 77.9601C71.9536 78.0504 72.2209 77.9788 72.4984 77.7453C72.58 77.6766 72.6711 77.586 72.7716 77.4735C72.8653 77.3529 72.9637 77.2213 73.0668 77.0788L73.7467 77.8868C73.6397 78.0744 73.5149 78.2491 73.3723 78.411C73.2378 78.5659 73.0971 78.7052 72.9502 78.8289ZM65.7022 75.8317L65.0223 75.0237L68.7194 71.9126L69.3993 72.7205L65.7022 75.8317ZM86.2165 58.3511C85.8995 59.6352 85.3096 60.5334 84.4471 61.0455C83.587 61.5473 82.4839 61.632 81.1377 61.2996L74.2253 59.5928L74.5628 58.2259L81.3198 59.8943C81.9722 60.0554 82.5416 60.1081 83.0278 60.0523C83.5165 59.9862 83.9221 59.7897 84.2446 59.4628C84.567 59.1359 84.8049 58.6618 84.9583 58.0405C85.1117 57.4191 85.1219 56.8887 84.9886 56.4493C84.8476 55.997 84.5762 55.6278 84.1744 55.3418C83.7726 55.0558 83.2454 54.8323 82.593 54.6712L75.8515 53.0066L76.1852 51.6552L83.0199 53.3428C84.3869 53.6803 85.3432 54.279 85.889 55.1389C86.427 55.9859 86.5362 57.0567 86.2165 58.3511ZM87.9735 46.3866C88.0016 46.9192 87.9471 47.4027 87.8099 47.8372C87.6726 48.2718 87.479 48.6505 87.2291 48.9735C86.9785 49.2858 86.7089 49.5404 86.4203 49.7373L85.5715 48.8369C85.9656 48.6131 86.2854 48.2971 86.5308 47.8889C86.765 47.4706 86.8675 46.9845 86.8382 46.4306C86.8117 45.93 86.6841 45.5362 86.4553 45.2492C86.2265 44.9622 85.931 44.8283 85.5688 44.8474C85.2706 44.8632 85.041 44.9661 84.8802 45.1562C84.7193 45.3463 84.5935 45.5933 84.5028 45.8972C84.412 46.2011 84.3333 46.531 84.2667 46.8871C84.2079 47.1892 84.1335 47.4976 84.0433 47.8121C83.9525 48.116 83.8338 48.3947 83.6869 48.6481C83.5401 48.9016 83.3428 49.1096 83.0951 49.2723C82.8473 49.4349 82.537 49.5261 82.1642 49.5458C81.5145 49.5802 80.9793 49.3575 80.5587 48.8777C80.1269 48.3878 79.8893 47.7328 79.8459 46.9126C79.8144 46.3161 79.9134 45.7661 80.1432 45.2626C80.3617 44.749 80.7139 44.3405 81.1999 44.0371L81.8847 44.8661C81.5231 45.0988 81.2717 45.3952 81.1306 45.7551C80.9782 46.105 80.9129 46.4876 80.9349 46.9031C80.9569 47.3185 81.0604 47.6602 81.2455 47.9281C81.4306 48.196 81.6722 48.3221 81.9705 48.3063C82.1942 48.2945 82.3719 48.221 82.5036 48.0859C82.6353 47.9507 82.7426 47.7581 82.8255 47.508C82.9079 47.2473 82.9821 46.9336 83.0481 46.567C83.1052 46.2328 83.178 45.8925 83.2665 45.546C83.355 45.1995 83.4768 44.878 83.6321 44.5814C83.7873 44.2847 84.0042 44.0436 84.2828 43.858C84.5501 43.6623 84.9075 43.5526 85.3549 43.5289C85.8449 43.503 86.2827 43.6027 86.6685 43.8279C87.0543 44.0532 87.3602 44.3842 87.5862 44.8208C87.8123 45.2575 87.9414 45.7794 87.9735 46.3866ZM78.9688 33.5241L78.8232 34.3206L76.7051 33.8511L77.1946 35.9764L76.3666 36.1175L76.177 33.9448L74.3332 35.0813L73.9501 34.3428L75.9339 33.4761L74.2671 32.0695L74.8667 31.4882L76.3147 33.0983L77.1509 31.0965L77.8933 31.4505L76.7835 33.3418L78.9688 33.5241ZM77.0981 19.5217C77.8118 20.256 78.2679 21.0696 78.4664 21.9625C78.6575 22.8478 78.5957 23.7483 78.2809 24.6641C77.9511 25.5797 77.3731 26.439 76.5471 27.2419C75.721 28.0448 74.8495 28.5944 73.9325 28.8906C73.0081 29.1792 72.1062 29.2154 71.2267 28.9993C70.3398 28.7754 69.5395 28.2964 68.8258 27.5621C68.0452 26.7589 67.5675 25.8696 67.3928 24.894C67.2181 23.9185 67.3562 22.9587 67.8071 22.0146L69.0772 22.6097C68.7504 23.3142 68.6462 24.0104 68.7647 24.6986C68.8755 25.3941 69.2171 26.0364 69.7895 26.6253C70.3174 27.1684 70.9084 27.5163 71.5625 27.6689C72.2165 27.8215 72.8885 27.7782 73.5783 27.5391C74.2531 27.2998 74.9155 26.8642 75.5657 26.2322C76.2159 25.6003 76.674 24.9468 76.94 24.2717C77.1987 23.5889 77.261 22.9185 77.1271 22.2603C76.9931 21.6021 76.6622 21.0015 76.1343 20.4584C75.5619 19.8695 74.9296 19.5097 74.2375 19.3792C73.5453 19.2486 72.8464 19.333 72.1406 19.6322L71.5704 18.3569C72.5192 17.9404 73.4825 17.8296 74.4604 18.0246C75.4382 18.2195 76.3175 18.7185 77.0981 19.5217ZM67.0229 11.3786C67.6777 11.7147 68.1881 12.1685 68.5542 12.74C68.906 13.3162 69.0877 13.9549 69.0994 14.6563C69.1111 15.3577 68.9368 16.0596 68.5764 16.7618C68.216 17.4641 67.7547 18.0126 67.1924 18.4074C66.6157 18.8069 65.9932 19.0269 65.3249 19.0676C64.6423 19.1129 63.9688 18.9651 63.3045 18.6242C62.6402 18.2833 62.1369 17.8272 61.7947 17.2559C61.4381 16.6892 61.2539 16.0552 61.2422 15.3538C61.2256 14.6619 61.3975 13.9648 61.7579 13.2626C62.1183 12.5603 62.5868 12.0095 63.1635 11.61C63.7353 11.2201 64.3577 11 65.0309 10.9498C65.7041 10.8997 66.3681 11.0426 67.0229 11.3786ZM66.475 12.4462C66.029 12.2173 65.591 12.1245 65.1612 12.1677C64.7171 12.2155 64.3074 12.3829 63.9323 12.67C63.5523 12.9666 63.2308 13.3711 62.9679 13.8835C62.7 14.4055 62.5588 14.9025 62.5443 15.3746C62.5249 15.8562 62.6278 16.2867 62.8528 16.6659C63.0683 17.0403 63.399 17.3419 63.8451 17.5708C64.3006 17.8046 64.7504 17.8976 65.1946 17.8498C65.6339 17.8114 66.0411 17.6487 66.4162 17.3617C66.7913 17.0746 67.1128 16.6701 67.3807 16.1482C67.6437 15.6357 67.7848 15.1387 67.8042 14.657C67.8187 14.1849 67.7159 13.7545 67.4958 13.3658C67.2708 12.9865 66.9305 12.68 66.475 12.4462ZM58.9258 7.74679L57.5405 15.5122L56.2016 15.2733L56.4967 13.6195L56.8314 13.5654C56.6132 13.9382 56.3537 14.2386 56.053 14.4667C55.7504 14.7053 55.4074 14.8662 55.0242 14.9495C54.639 15.0433 54.2312 15.0518 53.8007 14.975C52.9501 14.8233 52.3283 14.4523 51.9351 13.8621C51.5401 13.2824 51.4298 12.5042 51.604 11.5277L52.4835 6.5975L53.8224 6.83635L53.03 11.2782C52.8895 12.0658 52.9334 12.6696 53.1619 13.0895C53.378 13.5182 53.78 13.7849 54.3681 13.8898C54.7986 13.9666 55.184 13.9324 55.5241 13.7872C55.8537 13.6402 56.1357 13.3654 56.37 12.963C56.6024 12.5711 56.7777 12.0443 56.8957 11.3828L57.5869 7.50794L58.9258 7.74679ZM44.5642 6.00595C44.9365 5.97872 45.282 6.02297 45.6006 6.13871C45.9094 6.26586 46.1605 6.48279 46.3541 6.78949C46.5476 7.09619 46.6627 7.49954 46.6993 7.99954L47.2816 15.9623L45.9652 16.8286L45.3526 8.45096C45.3207 8.01479 45.2267 7.67942 45.0705 7.44485C44.9151 7.22093 44.6565 7.12219 44.2948 7.14864C44.1884 7.15642 44.0615 7.17639 43.9142 7.20856C43.7675 7.25137 43.6107 7.30027 43.4436 7.35527L43.3666 6.30208C43.5633 6.21283 43.7668 6.14447 43.9772 6.097C44.177 6.0503 44.3727 6.01995 44.5642 6.00595ZM48.6782 12.6837L48.7552 13.7369L43.936 14.0893L43.859 13.0361L48.6782 12.6837ZM33.6415 8.50676L34.2358 9.97818L35.3033 13.1641C35.4965 13.7406 35.8074 14.1314 36.2361 14.3365C36.6547 14.5449 37.1776 14.5441 37.8046 14.334C38.2092 14.1984 38.5596 13.9854 38.856 13.6948C39.1558 13.4144 39.4065 13.021 39.6081 12.5148L40.7978 12.9936C40.5458 13.618 40.1891 14.1313 39.7276 14.5334C39.2695 14.9456 38.7219 15.2585 38.0847 15.472C37.1036 15.8007 36.2604 15.802 35.5549 15.476C34.8494 15.1499 34.3407 14.5216 34.029 13.5911L32.4582 8.90327L33.6415 8.50676ZM36.0737 7.55679C36.6401 7.36701 37.1679 7.29703 37.657 7.34686C38.1395 7.41019 38.5563 7.57988 38.9076 7.85592C39.2487 8.13535 39.4972 8.50769 39.6531 8.97293C39.792 9.38761 39.8281 9.76365 39.7611 10.1011C39.6875 10.452 39.5463 10.7524 39.3375 11.0023C39.1322 11.2624 38.8728 11.4787 38.5594 11.6512C38.2392 11.8372 37.892 11.9929 37.5178 12.1183L35.0904 12.9317L34.7651 11.9607L37.0104 11.2084C37.2329 11.1338 37.4588 11.0357 37.6879 10.9139C37.9171 10.7921 38.1007 10.6349 38.2387 10.4425C38.3363 10.2973 38.4001 10.1352 38.4302 9.95642C38.4502 9.78099 38.4263 9.59214 38.3585 9.38986C38.2263 8.99541 37.9746 8.73102 37.6034 8.59668C37.2321 8.46233 36.7987 8.47819 36.3031 8.64425C35.8884 8.7832 35.5464 9.00468 35.277 9.30868C34.9975 9.61607 34.8126 9.97053 34.7221 10.3721C34.625 10.7871 34.6476 11.207 34.7899 11.6318L34.0759 11.2636C33.957 10.7072 33.9595 10.1776 34.0835 9.67484C34.2075 9.17206 34.4379 8.73488 34.7746 8.36331C35.1046 8.00524 35.5377 7.7364 36.0737 7.55679ZM24.7507 12.6653C25.2325 12.3306 25.7226 12.12 26.221 12.0335C26.7107 11.9531 27.189 11.978 27.656 12.1081C28.1292 12.247 28.5714 12.4722 28.9828 12.7839C29.3941 13.0956 29.758 13.4792 30.0745 13.9347C30.3849 14.3815 30.6144 14.852 30.7629 15.3462C30.9115 15.8405 30.9652 16.3292 30.9242 16.8123C30.8892 17.3041 30.7486 17.7654 30.5024 18.1963C30.2475 18.6332 29.8791 19.019 29.3973 19.3537C28.7841 19.7797 28.1462 20.002 27.4838 20.0206C26.8126 20.0454 26.1545 19.8272 25.5095 19.3661L26.2302 18.3004C26.6085 18.5831 27.0125 18.744 27.4423 18.7831C27.8721 18.8222 28.3016 18.6927 28.7309 18.3945C29.1601 18.0962 29.4358 17.7359 29.5579 17.3134C29.68 16.8909 29.6863 16.4513 29.577 15.9948C29.4589 15.5443 29.2568 15.1133 28.9707 14.7015C28.6847 14.2898 28.3482 13.9456 27.9612 13.669C27.5715 13.4072 27.1574 13.2598 26.7188 13.2268C26.2863 13.2025 25.8555 13.3395 25.4262 13.6377C24.997 13.9359 24.7227 14.2889 24.6032 14.6965C24.4899 15.113 24.5028 15.5521 24.6418 16.014L23.3916 16.3176C23.1846 15.5522 23.2067 14.855 23.458 14.2258C23.7066 13.6115 24.1375 13.0914 24.7507 12.6653ZM16.4845 19.5291C16.7303 19.248 17.0071 19.0367 17.3151 18.8951C17.6241 18.7685 17.9552 18.7462 18.3085 18.8284C18.6617 18.9105 19.0271 19.1165 19.4045 19.4465L25.4155 24.7011L25.0881 26.2426L18.7639 20.7141C18.4346 20.4263 18.132 20.2538 17.8561 20.1968C17.5881 20.1467 17.3348 20.2582 17.0961 20.5313C17.0259 20.6116 16.9497 20.715 16.8675 20.8414C16.7933 20.9749 16.7161 21.1199 16.6359 21.2765L15.8408 20.5815C15.918 20.3798 16.0147 20.1881 16.1311 20.0064C16.2404 19.8328 16.3582 19.6737 16.4845 19.5291ZM24.1045 21.3874L24.8996 22.0824L21.7194 25.7204L20.9243 25.0254L24.1045 21.3874ZM8.08665 34.6854C8.43632 33.4098 9.04884 32.527 9.9242 32.037C10.7967 31.5572 11.9017 31.5007 13.239 31.8673L20.1057 33.7496L19.7334 35.1075L13.0211 33.2675C12.373 33.0898 11.8052 33.0226 11.3177 33.066C10.8274 33.1196 10.417 33.3057 10.0863 33.6243C9.75566 33.9429 9.50574 34.4108 9.33654 35.028C9.16734 35.6452 9.14373 36.1752 9.26571 36.6179C9.39516 37.0736 9.65709 37.4496 10.0515 37.7457C10.4459 38.0419 10.9672 38.2788 11.6152 38.4564L18.3122 40.2922L17.9442 41.6347L11.1547 39.7735C9.79675 39.4013 8.85595 38.7784 8.33225 37.9049C7.81602 37.0444 7.73416 35.9713 8.08665 34.6854ZM6.02271 46.6028C6.00846 46.0696 6.0756 45.5877 6.22414 45.1569C6.37268 44.7261 6.5761 44.3525 6.83441 44.0362C7.09299 43.7305 7.36915 43.483 7.66286 43.2938L8.4878 44.216C8.08803 44.4295 7.76013 44.737 7.50411 45.1387C7.25904 45.5507 7.14391 46.0339 7.15874 46.5884C7.17213 47.0896 7.28945 47.4866 7.51069 47.7794C7.73193 48.0723 8.02382 48.2139 8.38636 48.2042C8.68492 48.1962 8.91708 48.0993 9.08284 47.9134C9.2486 47.7276 9.3808 47.484 9.47945 47.1826C9.57809 46.8812 9.66536 46.5534 9.74126 46.1992C9.80791 45.8987 9.89042 45.5924 9.98878 45.2803C10.0874 44.9789 10.2134 44.7034 10.3668 44.4539C10.5202 44.2044 10.7229 44.0016 10.9748 43.8454C11.2267 43.6893 11.5393 43.6063 11.9125 43.5963C12.5629 43.5789 13.0921 43.8155 13.5 44.3061C13.9189 44.8071 14.1393 45.4681 14.1612 46.2891C14.1772 46.8863 14.0638 47.4335 13.821 47.9308C13.5891 48.4385 13.2264 48.8377 12.7326 49.1283L12.0697 48.2817C12.4372 48.0585 12.6963 47.7688 12.8468 47.4127C13.0083 47.0669 13.0835 46.6861 13.0723 46.2702C13.0612 45.8544 12.9667 45.5101 12.7886 45.2374C12.6106 44.9648 12.3723 44.8324 12.0738 44.8404C11.8499 44.8464 11.6703 44.9152 11.5351 45.0469C11.3999 45.1785 11.2876 45.3683 11.1982 45.6161C11.1091 45.8746 11.0267 46.1862 10.9511 46.551C10.8853 46.8836 10.8036 47.2219 10.7061 47.5659C10.6086 47.91 10.4784 48.2283 10.3155 48.5207C10.1526 48.8132 9.92948 49.0486 9.64614 49.2269C9.37375 49.4155 9.01364 49.5159 8.5658 49.5278C8.07531 49.541 7.64018 49.4299 7.26043 49.1946C6.88067 48.9593 6.58351 48.6205 6.36894 48.1781C6.15437 47.7357 6.03896 47.2106 6.02271 46.6028ZM12.9418 53.783L13.279 53.0468L15.2163 54.0233L15.265 51.8429L16.1023 51.91L15.7513 54.0625L17.8181 53.4148L18.0075 54.2249L15.8715 54.5766L17.1407 56.3502L16.4164 56.7661L15.4094 54.849L14.1061 56.5834L13.4737 56.0576L15.015 54.4976L12.9418 53.783Z" fill="#18293A"/>
</svg>
