<svg width="32" height="33" viewBox="0 0 32 33" fill="none" xmlns="http://www.w3.org/2000/svg">
<circle cx="16" cy="16.9805" r="15.5" stroke="#18293A"/>
<path d="M18.666 11.6465H13.3327C11.8599 11.6465 10.666 12.8404 10.666 14.3132V19.6465C10.666 21.1192 11.8599 22.3132 13.3327 22.3132H18.666C20.1388 22.3132 21.3327 21.1192 21.3327 19.6465V14.3132C21.3327 12.8404 20.1388 11.6465 18.666 11.6465Z" stroke="#18293A" stroke-width="0.8" stroke-linecap="round" stroke-linejoin="round"/>
<path d="M18.1323 16.6446C18.1981 17.0885 18.1223 17.5418 17.9156 17.9401C17.7089 18.3384 17.3819 18.6614 16.9811 18.8631C16.5803 19.0649 16.1261 19.1351 15.6831 19.0638C15.2401 18.9925 14.8308 18.7833 14.5135 18.466C14.1962 18.1488 13.9871 17.7395 13.9158 17.2965C13.8445 16.8535 13.9147 16.3992 14.1164 15.9984C14.3182 15.5976 14.6412 15.2706 15.0395 15.064C15.4378 14.8573 15.8911 14.7815 16.3349 14.8473C16.7877 14.9144 17.2069 15.1254 17.5305 15.4491C17.8542 15.7727 18.0651 16.1919 18.1323 16.6446Z" stroke="#18293A" stroke-width="0.8" stroke-linecap="round" stroke-linejoin="round"/>
<path d="M18.9336 14.0469H18.9389" stroke="#18293A" stroke-width="0.8" stroke-linecap="round" stroke-linejoin="round"/>
</svg>
