<svg width="32" height="33" viewBox="0 0 32 33" fill="none" xmlns="http://www.w3.org/2000/svg">
<path d="M18.1336 14.5801C18.9823 14.5801 19.7962 14.9172 20.3963 15.5173C20.9965 16.1175 21.3336 16.9314 21.3336 17.7801V21.5134H19.2003V17.7801C19.2003 17.4972 19.0879 17.2259 18.8878 17.0258C18.6878 16.8258 18.4165 16.7134 18.1336 16.7134C17.8507 16.7134 17.5794 16.8258 17.3793 17.0258C17.1793 17.2259 17.0669 17.4972 17.0669 17.7801V21.5134H14.9336V17.7801C14.9336 16.9314 15.2707 16.1175 15.8709 15.5173C16.471 14.9172 17.2849 14.5801 18.1336 14.5801Z" stroke="#18293A" stroke-width="0.8" stroke-linecap="round" stroke-linejoin="round"/>
<path d="M12.7993 15.1133H10.666V21.5133H12.7993V15.1133Z" stroke="#18293A" stroke-width="0.8" stroke-linecap="round" stroke-linejoin="round"/>
<path d="M11.7327 13.7798C12.3218 13.7798 12.7993 13.3023 12.7993 12.7132C12.7993 12.124 12.3218 11.6465 11.7327 11.6465C11.1436 11.6465 10.666 12.124 10.666 12.7132C10.666 13.3023 11.1436 13.7798 11.7327 13.7798Z" stroke="#18293A" stroke-width="0.8" stroke-linecap="round" stroke-linejoin="round"/>
<circle cx="16" cy="16.9805" r="15.5" stroke="#18293A"/>
</svg>
