<svg width="1264" height="203" viewBox="0 0 1264 203" fill="none" xmlns="http://www.w3.org/2000/svg">
<path d="M0 159.287V0H45.4779C79.5863 0 108.01 18.2043 108.01 56.2057C108.01 94.207 79.5863 112.184 45.2505 112.184H25.9224V159.287H0ZM25.9224 88.7458H43.8862C66.1703 88.7458 82.7698 78.961 82.7698 56.2057C82.7698 33.2228 66.1703 23.2104 43.8862 23.2104H25.9224V88.7458ZM121.06 159.287V45.5106H144.026V159.287H121.06ZM116.739 17.9767C116.739 8.87458 123.334 2.50309 132.429 2.50309C141.525 2.50309 148.347 8.87458 148.347 17.9767C148.347 26.8513 141.525 33.4503 132.429 33.4503C123.334 33.4503 116.739 26.8513 116.739 17.9767ZM162.992 159.287V45.5106H185.731V71.6793C193.007 53.2475 210.971 43.2351 231.436 43.2351V65.5353C213.7 65.5353 187.323 75.0926 185.731 115.825V159.287H162.992ZM285.34 161.563C254.188 161.563 233.495 135.167 233.495 102.399C233.495 69.6313 254.188 43.2351 285.34 43.2351C300.802 43.2351 312.172 49.8342 319.675 60.3016V45.5106H341.505V159.287H319.675V144.496C312.172 154.964 300.802 161.563 285.34 161.563ZM256.007 102.399C256.007 126.292 269.65 141.993 287.614 141.993C304.895 141.993 319.675 128.34 319.675 102.399C319.675 77.5957 304.895 62.8047 287.614 62.8047C269.65 62.8047 256.007 78.5059 256.007 102.399ZM438.9 98.7581C438.9 75.3201 430.486 63.2598 412.977 63.2598C397.515 63.2598 381.143 79.1885 381.143 101.034V159.287H358.404V45.5106H381.143V64.17C389.783 51.427 404.564 43.2351 418.889 43.2351C445.266 43.2351 461.866 60.7567 461.866 95.5724V159.287H438.9V98.7581Z" fill="black"/>
<path d="M497.392 12.3105H604.947C602.446 25.5086 599.035 42.3476 596.079 54.863H594.715L589.03 15.7238H556.286L522.177 151.801C527.18 152.938 534.456 154.759 539.686 156.352L539.459 157.49H489.888L490.115 156.352C496.255 154.759 504.214 152.938 509.671 151.801L543.779 15.7238H511.263L485.568 54.863H484.203C487.614 42.3476 492.844 25.5086 497.392 12.3105ZM650.52 152.028L679.626 128.818L680.535 129.5C676.215 137.692 653.021 159.765 646.199 159.765C641.197 159.765 637.559 156.352 638.923 151.801L647.564 116.757C632.783 144.064 615.274 159.765 601.631 159.765C590.034 159.765 582.53 149.98 582.53 129.5C582.53 88.5409 610.727 53.2701 641.424 53.2701C649.155 53.2701 655.977 56.0008 661.207 61.9172L662.117 58.5039L675.305 54.4079L650.52 152.028ZM608.225 150.435C618.23 150.435 632.783 139.513 650.065 106.745L659.161 70.7917C655.522 60.3243 648.473 56.2283 640.742 56.2283C614.82 56.2283 595.037 96.7328 595.037 128.59C595.037 144.064 599.812 150.435 608.225 150.435ZM762.308 53.2701C766.629 53.2701 770.494 54.6354 773.223 56.6834L763.673 92.8644H762.308C764.582 69.8815 762.763 62.3723 755.714 62.3723C745.481 62.3723 732.52 73.7499 717.967 106.745L705.461 156.579L693.409 159.082L717.058 64.4202L689.544 81.9419L689.089 80.8041C698.412 70.3366 708.872 61.2345 721.151 54.4079C727.063 54.863 730.019 59.1865 728.2 66.0131L721.151 94.4573C732.748 69.1989 747.073 53.2701 762.308 53.2701ZM841.716 152.028L870.822 128.818L871.732 129.5C867.411 137.692 844.218 159.765 837.396 159.765C832.393 159.765 828.755 156.352 830.12 151.801L838.76 116.757C823.98 144.064 806.471 159.765 792.828 159.765C781.231 159.765 773.727 149.98 773.727 129.5C773.727 88.5409 801.923 53.2701 832.621 53.2701C840.352 53.2701 847.174 56.0008 852.404 61.9172L853.313 58.5039L866.502 54.4079L841.716 152.028ZM799.422 150.435C809.427 150.435 823.98 139.513 841.262 106.745L850.357 70.7917C846.719 60.3243 839.67 56.2283 831.939 56.2283C806.016 56.2283 786.233 96.7328 786.233 128.59C786.233 144.064 791.009 150.435 799.422 150.435ZM920.757 159.765C911.207 159.765 904.385 157.034 898.473 151.801L887.103 197.766C893.47 198.904 902.339 200.27 908.251 201.862V203H859.362V201.862C864.819 200.27 870.959 198.904 875.507 197.766L908.933 64.4202L880.736 81.9419L880.054 80.8041C889.832 70.1091 900.519 61.2345 912.798 54.4079C918.938 54.863 921.667 59.1865 919.847 66.2407L912.116 97.4155C928.488 67.8335 945.542 53.2701 960.55 53.2701C973.966 53.2701 981.015 64.4202 981.015 83.9898C981.015 127.68 952.364 159.765 920.757 159.765ZM954.183 62.1447C942.586 62.1447 928.261 72.6122 909.615 107.655L900.292 144.291C904.385 152.711 911.434 156.579 920.984 156.579C948.044 156.579 968.509 121.536 968.509 84.9C968.509 70.1091 964.643 62.1447 954.183 62.1447ZM1031.29 159.765C1009.47 159.765 996.504 143.154 996.504 117.44C996.504 82.6245 1020.38 53.2701 1049.49 53.2701C1071.54 53.2701 1084.28 70.1091 1084.28 95.595C1084.28 130.411 1060.4 159.765 1031.29 159.765ZM1031.75 156.352C1054.94 156.352 1072 123.584 1072 91.2715C1072 70.1091 1064.27 56.6834 1049.26 56.6834C1025.84 56.6834 1008.78 89.4511 1008.78 121.536C1008.78 143.154 1016.74 156.352 1031.75 156.352ZM1171.34 53.2701C1175.66 53.2701 1179.53 54.6354 1182.26 56.6834L1172.71 92.8644H1171.34C1173.62 69.8815 1171.8 62.3723 1164.75 62.3723C1154.52 62.3723 1141.56 73.7499 1127 106.745L1114.5 156.579L1102.45 159.082L1126.09 64.4202L1098.58 81.9419L1098.12 80.8041C1107.45 70.3366 1117.91 61.2345 1130.19 54.4079C1136.1 54.863 1139.05 59.1865 1137.24 66.0131L1130.19 94.4573C1141.78 69.1989 1156.11 53.2701 1171.34 53.2701ZM1215.73 152.256C1226.19 152.256 1237.11 146.795 1256.21 125.86L1257.34 126.542C1241.43 152.028 1227.1 159.765 1212.77 159.765C1195.49 159.765 1183.9 147.022 1183.9 122.901C1183.9 84.2174 1212.09 53.2701 1241.2 53.2701C1255.07 53.2701 1263.94 61.0069 1263.94 71.9295C1263.94 90.5889 1239.61 105.835 1196.86 112.206C1196.63 115.392 1196.4 118.578 1196.4 121.764C1196.4 144.291 1205.04 152.256 1215.73 152.256ZM1239.83 56.4559C1219.37 56.4559 1201.63 81.2592 1197.31 109.021C1238.24 101.967 1253.02 84.6725 1253.02 70.3366C1253.02 61.9172 1248.7 56.4559 1239.83 56.4559Z" fill="black"/>
</svg>
