<svg width="410" height="110" viewBox="0 0 410 110" fill="none" xmlns="http://www.w3.org/2000/svg">
<path d="M32.22 76V34H44.22C53.22 34 60.72 38.8 60.72 48.82C60.72 58.84 53.22 63.58 44.16 63.58H39.06V76H32.22ZM39.06 57.4H43.8C49.68 57.4 54.06 54.82 54.06 48.82C54.06 42.76 49.68 40.12 43.8 40.12H39.06V57.4ZM64.1634 76V46H70.2234V76H64.1634ZM63.0234 38.74C63.0234 36.34 64.7634 34.66 67.1634 34.66C69.5634 34.66 71.3634 36.34 71.3634 38.74C71.3634 41.08 69.5634 42.82 67.1634 42.82C64.7634 42.82 63.0234 41.08 63.0234 38.74ZM75.2278 76V46H81.2278V52.9C83.1478 48.04 87.8878 45.4 93.2878 45.4V51.28C88.6078 51.28 81.6478 53.8 81.2278 64.54V76H75.2278ZM107.511 76.6C99.2911 76.6 93.8311 69.64 93.8311 61C93.8311 52.36 99.2911 45.4 107.511 45.4C111.591 45.4 114.591 47.14 116.571 49.9V46H122.331V76H116.571V72.1C114.591 74.86 111.591 76.6 107.511 76.6ZM99.7711 61C99.7711 67.3 103.371 71.44 108.111 71.44C112.671 71.44 116.571 67.84 116.571 61C116.571 54.46 112.671 50.56 108.111 50.56C103.371 50.56 99.7711 54.7 99.7711 61ZM148.03 60.04C148.03 53.86 145.81 50.68 141.19 50.68C137.11 50.68 132.79 54.88 132.79 60.64V76H126.79V46H132.79V50.92C135.07 47.56 138.97 45.4 142.75 45.4C149.71 45.4 154.09 50.02 154.09 59.2V76H148.03V60.04Z" fill="black"/>
<mask id="path-2-outside-1_346_46" maskUnits="userSpaceOnUse" x="168" y="35.5" width="207" height="52" fill="black">
<rect fill="white" x="168" y="35.5" width="207" height="52"/>
<path d="M172.22 36.22H200.6C199.94 39.7 199.04 44.14 198.26 47.44H197.9L196.4 37.12H187.76L178.76 73C180.08 73.3 182 73.78 183.38 74.2L183.32 74.5H170.24L170.3 74.2C171.92 73.78 174.02 73.3 175.46 73L184.46 37.12H175.88L169.1 47.44H168.74C169.64 44.14 171.02 39.7 172.22 36.22ZM212.625 73.06L220.305 66.94L220.545 67.12C219.405 69.28 213.285 75.1 211.485 75.1C210.165 75.1 209.205 74.2 209.565 73L211.845 63.76C207.945 70.96 203.325 75.1 199.725 75.1C196.665 75.1 194.685 72.52 194.685 67.12C194.685 56.32 202.125 47.02 210.225 47.02C212.265 47.02 214.065 47.74 215.445 49.3L215.685 48.4L219.165 47.32L212.625 73.06ZM201.465 72.64C204.105 72.64 207.945 69.76 212.505 61.12L214.905 51.64C213.945 48.88 212.085 47.8 210.045 47.8C203.205 47.8 197.985 58.48 197.985 66.88C197.985 70.96 199.245 72.64 201.465 72.64ZM242.122 47.02C243.262 47.02 244.282 47.38 245.002 47.92L242.482 57.46H242.122C242.722 51.4 242.242 49.42 240.382 49.42C237.682 49.42 234.262 52.42 230.422 61.12L227.122 74.26L223.942 74.92L230.182 49.96L222.922 54.58L222.802 54.28C225.262 51.52 228.022 49.12 231.262 47.32C232.822 47.44 233.602 48.58 233.122 50.38L231.262 57.88C234.322 51.22 238.102 47.02 242.122 47.02ZM263.075 73.06L270.755 66.94L270.995 67.12C269.855 69.28 263.735 75.1 261.935 75.1C260.615 75.1 259.655 74.2 260.015 73L262.295 63.76C258.395 70.96 253.775 75.1 250.175 75.1C247.115 75.1 245.135 72.52 245.135 67.12C245.135 56.32 252.575 47.02 260.675 47.02C262.715 47.02 264.515 47.74 265.895 49.3L266.135 48.4L269.615 47.32L263.075 73.06ZM251.915 72.64C254.555 72.64 258.395 69.76 262.955 61.12L265.355 51.64C264.395 48.88 262.535 47.8 260.495 47.8C253.655 47.8 248.435 58.48 248.435 66.88C248.435 70.96 249.695 72.64 251.915 72.64ZM283.931 75.1C281.411 75.1 279.611 74.38 278.051 73L275.051 85.12C276.731 85.42 279.071 85.78 280.631 86.2V86.5H267.731V86.2C269.171 85.78 270.791 85.42 271.991 85.12L280.811 49.96L273.371 54.58L273.191 54.28C275.771 51.46 278.591 49.12 281.831 47.32C283.451 47.44 284.171 48.58 283.691 50.44L281.651 58.66C285.971 50.86 290.471 47.02 294.431 47.02C297.971 47.02 299.831 49.96 299.831 55.12C299.831 66.64 292.271 75.1 283.931 75.1ZM292.751 49.36C289.691 49.36 285.911 52.12 280.991 61.36L278.531 71.02C279.611 73.24 281.471 74.26 283.991 74.26C291.131 74.26 296.531 65.02 296.531 55.36C296.531 51.46 295.511 49.36 292.751 49.36ZM313.098 75.1C307.338 75.1 303.918 70.72 303.918 63.94C303.918 54.76 310.218 47.02 317.898 47.02C323.718 47.02 327.078 51.46 327.078 58.18C327.078 67.36 320.778 75.1 313.098 75.1ZM313.218 74.2C319.338 74.2 323.838 65.56 323.838 57.04C323.838 51.46 321.798 47.92 317.838 47.92C311.658 47.92 307.158 56.56 307.158 65.02C307.158 70.72 309.258 74.2 313.218 74.2ZM350.052 47.02C351.192 47.02 352.212 47.38 352.932 47.92L350.412 57.46H350.052C350.652 51.4 350.172 49.42 348.312 49.42C345.612 49.42 342.192 52.42 338.352 61.12L335.052 74.26L331.872 74.92L338.112 49.96L330.852 54.58L330.732 54.28C333.192 51.52 335.952 49.12 339.192 47.32C340.752 47.44 341.532 48.58 341.052 50.38L339.192 57.88C342.252 51.22 346.032 47.02 350.052 47.02ZM361.764 73.12C364.524 73.12 367.404 71.68 372.444 66.16L372.744 66.34C368.544 73.06 364.764 75.1 360.984 75.1C356.424 75.1 353.364 71.74 353.364 65.38C353.364 55.18 360.804 47.02 368.484 47.02C372.144 47.02 374.484 49.06 374.484 51.94C374.484 56.86 368.064 60.88 356.784 62.56C356.724 63.4 356.664 64.24 356.664 65.08C356.664 71.02 358.944 73.12 361.764 73.12ZM368.124 47.86C362.724 47.86 358.044 54.4 356.904 61.72C367.704 59.86 371.604 55.3 371.604 51.52C371.604 49.3 370.464 47.86 368.124 47.86Z"/>
</mask>
<path d="M172.22 36.22H200.6C199.94 39.7 199.04 44.14 198.26 47.44H197.9L196.4 37.12H187.76L178.76 73C180.08 73.3 182 73.78 183.38 74.2L183.32 74.5H170.24L170.3 74.2C171.92 73.78 174.02 73.3 175.46 73L184.46 37.12H175.88L169.1 47.44H168.74C169.64 44.14 171.02 39.7 172.22 36.22ZM212.625 73.06L220.305 66.94L220.545 67.12C219.405 69.28 213.285 75.1 211.485 75.1C210.165 75.1 209.205 74.2 209.565 73L211.845 63.76C207.945 70.96 203.325 75.1 199.725 75.1C196.665 75.1 194.685 72.52 194.685 67.12C194.685 56.32 202.125 47.02 210.225 47.02C212.265 47.02 214.065 47.74 215.445 49.3L215.685 48.4L219.165 47.32L212.625 73.06ZM201.465 72.64C204.105 72.64 207.945 69.76 212.505 61.12L214.905 51.64C213.945 48.88 212.085 47.8 210.045 47.8C203.205 47.8 197.985 58.48 197.985 66.88C197.985 70.96 199.245 72.64 201.465 72.64ZM242.122 47.02C243.262 47.02 244.282 47.38 245.002 47.92L242.482 57.46H242.122C242.722 51.4 242.242 49.42 240.382 49.42C237.682 49.42 234.262 52.42 230.422 61.12L227.122 74.26L223.942 74.92L230.182 49.96L222.922 54.58L222.802 54.28C225.262 51.52 228.022 49.12 231.262 47.32C232.822 47.44 233.602 48.58 233.122 50.38L231.262 57.88C234.322 51.22 238.102 47.02 242.122 47.02ZM263.075 73.06L270.755 66.94L270.995 67.12C269.855 69.28 263.735 75.1 261.935 75.1C260.615 75.1 259.655 74.2 260.015 73L262.295 63.76C258.395 70.96 253.775 75.1 250.175 75.1C247.115 75.1 245.135 72.52 245.135 67.12C245.135 56.32 252.575 47.02 260.675 47.02C262.715 47.02 264.515 47.74 265.895 49.3L266.135 48.4L269.615 47.32L263.075 73.06ZM251.915 72.64C254.555 72.64 258.395 69.76 262.955 61.12L265.355 51.64C264.395 48.88 262.535 47.8 260.495 47.8C253.655 47.8 248.435 58.48 248.435 66.88C248.435 70.96 249.695 72.64 251.915 72.64ZM283.931 75.1C281.411 75.1 279.611 74.38 278.051 73L275.051 85.12C276.731 85.42 279.071 85.78 280.631 86.2V86.5H267.731V86.2C269.171 85.78 270.791 85.42 271.991 85.12L280.811 49.96L273.371 54.58L273.191 54.28C275.771 51.46 278.591 49.12 281.831 47.32C283.451 47.44 284.171 48.58 283.691 50.44L281.651 58.66C285.971 50.86 290.471 47.02 294.431 47.02C297.971 47.02 299.831 49.96 299.831 55.12C299.831 66.64 292.271 75.1 283.931 75.1ZM292.751 49.36C289.691 49.36 285.911 52.12 280.991 61.36L278.531 71.02C279.611 73.24 281.471 74.26 283.991 74.26C291.131 74.26 296.531 65.02 296.531 55.36C296.531 51.46 295.511 49.36 292.751 49.36ZM313.098 75.1C307.338 75.1 303.918 70.72 303.918 63.94C303.918 54.76 310.218 47.02 317.898 47.02C323.718 47.02 327.078 51.46 327.078 58.18C327.078 67.36 320.778 75.1 313.098 75.1ZM313.218 74.2C319.338 74.2 323.838 65.56 323.838 57.04C323.838 51.46 321.798 47.92 317.838 47.92C311.658 47.92 307.158 56.56 307.158 65.02C307.158 70.72 309.258 74.2 313.218 74.2ZM350.052 47.02C351.192 47.02 352.212 47.38 352.932 47.92L350.412 57.46H350.052C350.652 51.4 350.172 49.42 348.312 49.42C345.612 49.42 342.192 52.42 338.352 61.12L335.052 74.26L331.872 74.92L338.112 49.96L330.852 54.58L330.732 54.28C333.192 51.52 335.952 49.12 339.192 47.32C340.752 47.44 341.532 48.58 341.052 50.38L339.192 57.88C342.252 51.22 346.032 47.02 350.052 47.02ZM361.764 73.12C364.524 73.12 367.404 71.68 372.444 66.16L372.744 66.34C368.544 73.06 364.764 75.1 360.984 75.1C356.424 75.1 353.364 71.74 353.364 65.38C353.364 55.18 360.804 47.02 368.484 47.02C372.144 47.02 374.484 49.06 374.484 51.94C374.484 56.86 368.064 60.88 356.784 62.56C356.724 63.4 356.664 64.24 356.664 65.08C356.664 71.02 358.944 73.12 361.764 73.12ZM368.124 47.86C362.724 47.86 358.044 54.4 356.904 61.72C367.704 59.86 371.604 55.3 371.604 51.52C371.604 49.3 370.464 47.86 368.124 47.86Z" fill="black"/>
<path d="M172.22 36.22V35.72H171.864L171.747 36.057L172.22 36.22ZM200.6 36.22L201.091 36.3132L201.204 35.72H200.6V36.22ZM198.26 47.44V47.94H198.656L198.747 47.555L198.26 47.44ZM197.9 47.44L197.405 47.5119L197.467 47.94H197.9V47.44ZM196.4 37.12L196.895 37.0481L196.833 36.62H196.4V37.12ZM187.76 37.12V36.62H187.37L187.275 36.9983L187.76 37.12ZM178.76 73L178.275 72.8783L178.151 73.3743L178.649 73.4876L178.76 73ZM183.38 74.2L183.87 74.2981L183.959 73.8536L183.526 73.7217L183.38 74.2ZM183.32 74.5V75H183.73L183.81 74.5981L183.32 74.5ZM170.24 74.5L169.75 74.4019L169.63 75H170.24V74.5ZM170.3 74.2L170.175 73.716L169.871 73.7946L169.81 74.1019L170.3 74.2ZM175.46 73L175.562 73.4895L175.869 73.4256L175.945 73.1217L175.46 73ZM184.46 37.12L184.945 37.2416L185.101 36.62H184.46V37.12ZM175.88 37.12V36.62H175.61L175.462 36.8455L175.88 37.12ZM169.1 47.44V47.94H169.37L169.518 47.7145L169.1 47.44ZM168.74 47.44L168.258 47.3084L168.085 47.94H168.74V47.44ZM172.22 36.22V36.72H200.6V36.22V35.72H172.22V36.22ZM200.6 36.22L200.109 36.1268C199.449 39.6038 198.551 44.0355 197.773 47.325L198.26 47.44L198.747 47.555C199.529 44.2445 200.431 39.7962 201.091 36.3132L200.6 36.22ZM198.26 47.44V46.94H197.9V47.44V47.94H198.26V47.44ZM197.9 47.44L198.395 47.3681L196.895 37.0481L196.4 37.12L195.905 37.1919L197.405 47.5119L197.9 47.44ZM196.4 37.12V36.62H187.76V37.12V37.62H196.4V37.12ZM187.76 37.12L187.275 36.9983L178.275 72.8783L178.76 73L179.245 73.1217L188.245 37.2416L187.76 37.12ZM178.76 73L178.649 73.4876C179.963 73.7862 181.87 74.2632 183.234 74.6783L183.38 74.2L183.526 73.7217C182.13 73.2968 180.197 72.8138 178.871 72.5124L178.76 73ZM183.38 74.2L182.89 74.1019L182.83 74.4019L183.32 74.5L183.81 74.5981L183.87 74.2981L183.38 74.2ZM183.32 74.5V74H170.24V74.5V75H183.32V74.5ZM170.24 74.5L170.73 74.5981L170.79 74.2981L170.3 74.2L169.81 74.1019L169.75 74.4019L170.24 74.5ZM170.3 74.2L170.425 74.684C172.036 74.2664 174.128 73.7882 175.562 73.4895L175.46 73L175.358 72.5105C173.912 72.8118 171.804 73.2936 170.175 73.716L170.3 74.2ZM175.46 73L175.945 73.1217L184.945 37.2416L184.46 37.12L183.975 36.9983L174.975 72.8783L175.46 73ZM184.46 37.12V36.62H175.88V37.12V37.62H184.46V37.12ZM175.88 37.12L175.462 36.8455L168.682 47.1655L169.1 47.44L169.518 47.7145L176.298 37.3945L175.88 37.12ZM169.1 47.44V46.94H168.74V47.44V47.94H169.1V47.44ZM168.74 47.44L169.222 47.5716C170.119 44.2832 171.496 39.8538 172.693 36.383L172.22 36.22L171.747 36.057C170.544 39.5462 169.161 43.9968 168.258 47.3084L168.74 47.44ZM212.625 73.06L212.141 72.9369L211.775 74.3771L212.937 73.451L212.625 73.06ZM220.305 66.94L220.605 66.54L220.296 66.308L219.994 66.549L220.305 66.94ZM220.545 67.12L220.988 67.3534L221.187 66.976L220.845 66.72L220.545 67.12ZM209.565 73L210.044 73.1437L210.048 73.1318L210.051 73.1198L209.565 73ZM211.845 63.76L212.331 63.8798L211.406 63.5219L211.845 63.76ZM215.445 49.3L215.071 49.6313L215.688 50.3293L215.928 49.4288L215.445 49.3ZM215.685 48.4L215.537 47.9225L215.273 48.0043L215.202 48.2712L215.685 48.4ZM219.165 47.32L219.65 47.4431L219.87 46.5779L219.017 46.8425L219.165 47.32ZM212.505 61.12L212.948 61.3534L212.975 61.3006L212.99 61.2427L212.505 61.12ZM214.905 51.64L215.39 51.7627L215.427 51.6174L215.378 51.4757L214.905 51.64ZM212.625 73.06L212.937 73.451L220.617 67.331L220.305 66.94L219.994 66.549L212.314 72.669L212.625 73.06ZM220.305 66.94L220.005 67.34L220.245 67.52L220.545 67.12L220.845 66.72L220.605 66.54L220.305 66.94ZM220.545 67.12L220.103 66.8866C219.849 67.3686 219.288 68.099 218.53 68.9442C217.78 69.7797 216.864 70.6977 215.926 71.55C214.988 72.4035 214.037 73.1824 213.217 73.7445C212.807 74.026 212.439 74.2464 212.129 74.3946C211.806 74.5489 211.596 74.6 211.485 74.6V75.1V75.6C211.825 75.6 212.2 75.4692 212.56 75.2968C212.934 75.1183 213.348 74.8672 213.783 74.5692C214.653 73.9726 215.64 73.1615 216.599 72.29C217.559 71.4173 218.499 70.4753 219.274 69.6121C220.04 68.7585 220.672 67.9514 220.988 67.3534L220.545 67.12ZM211.485 75.1V74.6C210.933 74.6 210.503 74.4115 210.256 74.1537C210.023 73.911 209.915 73.574 210.044 73.1437L209.565 73L209.086 72.8563C208.855 73.626 209.048 74.339 209.535 74.8463C210.007 75.3385 210.718 75.6 211.485 75.6V75.1ZM209.565 73L210.051 73.1198L212.331 63.8798L211.845 63.76L211.36 63.6402L209.08 72.8802L209.565 73ZM211.845 63.76L211.406 63.5219C209.474 67.0881 207.375 69.8748 205.333 71.7629C203.28 73.6617 201.342 74.6 199.725 74.6V75.1V75.6C201.709 75.6 203.881 74.4683 206.012 72.4971C208.156 70.5152 210.317 67.6319 212.285 63.9981L211.845 63.76ZM199.725 75.1V74.6C198.359 74.6 197.257 74.0357 196.474 72.8582C195.673 71.6535 195.185 69.771 195.185 67.12H194.685H194.185C194.185 69.869 194.687 71.9765 195.641 73.4118C196.614 74.8743 198.032 75.6 199.725 75.6V75.1ZM194.685 67.12H195.185C195.185 61.8318 197.008 56.9151 199.812 53.3279C202.62 49.7357 206.372 47.52 210.225 47.52V47.02V46.52C205.979 46.52 201.961 48.9542 199.024 52.7121C196.083 56.4749 194.185 61.6082 194.185 67.12H194.685ZM210.225 47.02V47.52C212.137 47.52 213.795 48.189 215.071 49.6313L215.445 49.3L215.82 48.9687C214.336 47.291 212.394 46.52 210.225 46.52V47.02ZM215.445 49.3L215.928 49.4288L216.168 48.5288L215.685 48.4L215.202 48.2712L214.962 49.1712L215.445 49.3ZM215.685 48.4L215.834 48.8775L219.314 47.7975L219.165 47.32L219.017 46.8425L215.537 47.9225L215.685 48.4ZM219.165 47.32L218.681 47.1969L212.141 72.9369L212.625 73.06L213.11 73.1831L219.65 47.4431L219.165 47.32ZM201.465 72.64V73.14C202.969 73.14 204.707 72.3239 206.613 70.4793C208.525 68.6292 210.654 65.6993 212.948 61.3534L212.505 61.12L212.063 60.8866C209.797 65.1807 207.726 68.0108 205.918 69.7607C204.104 71.5161 202.602 72.14 201.465 72.14V72.64ZM212.505 61.12L212.99 61.2427L215.39 51.7627L214.905 51.64L214.421 51.5173L212.021 60.9973L212.505 61.12ZM214.905 51.64L215.378 51.4757C214.871 50.0191 214.113 48.9675 213.176 48.2816C212.238 47.5952 211.156 47.3 210.045 47.3V47.8V48.3C210.975 48.3 211.842 48.5448 212.585 49.0884C213.328 49.6325 213.98 50.5009 214.433 51.8043L214.905 51.64ZM210.045 47.8V47.3C206.353 47.3 203.207 50.1692 201.018 53.9389C198.815 57.733 197.485 62.5893 197.485 66.88H197.985H198.485C198.485 62.7707 199.766 58.087 201.883 54.4411C204.014 50.7708 206.898 48.3 210.045 48.3V47.8ZM197.985 66.88H197.485C197.485 68.9542 197.802 70.509 198.471 71.5587C199.166 72.6496 200.205 73.14 201.465 73.14V72.64V72.14C200.505 72.14 199.804 71.7904 199.315 71.0213C198.798 70.211 198.485 68.8858 198.485 66.88H197.985ZM245.002 47.92L245.485 48.0477L245.571 47.7221L245.302 47.52L245.002 47.92ZM242.482 57.46V57.96H242.867L242.965 57.5877L242.482 57.46ZM242.122 57.46L241.624 57.4107L241.57 57.96H242.122V57.46ZM230.422 61.12L229.964 60.9181L229.947 60.957L229.937 60.9982L230.422 61.12ZM227.122 74.26L227.223 74.7496L227.53 74.6859L227.607 74.3818L227.122 74.26ZM223.942 74.92L223.457 74.7987L223.264 75.5714L224.043 75.4096L223.942 74.92ZM230.182 49.96L230.667 50.0813L230.971 48.8652L229.913 49.5382L230.182 49.96ZM222.922 54.58L222.458 54.7657L222.682 55.3256L223.19 55.0018L222.922 54.58ZM222.802 54.28L222.429 53.9473L222.223 54.1783L222.338 54.4657L222.802 54.28ZM231.262 47.32L231.3 46.8215L231.15 46.8099L231.019 46.8829L231.262 47.32ZM233.122 50.38L232.639 50.2511L232.637 50.2596L233.122 50.38ZM231.262 57.88L230.777 57.7596L231.716 58.0887L231.262 57.88ZM242.122 47.02V47.52C243.16 47.52 244.074 47.8488 244.702 48.32L245.002 47.92L245.302 47.52C244.49 46.9112 243.363 46.52 242.122 46.52V47.02ZM245.002 47.92L244.518 47.7923L241.998 57.3323L242.482 57.46L242.965 57.5877L245.485 48.0477L245.002 47.92ZM242.482 57.46V56.96H242.122V57.46V57.96H242.482V57.46ZM242.122 57.46L242.619 57.5093C242.919 54.4835 242.959 52.3993 242.663 51.0593C242.513 50.3826 242.265 49.8364 241.866 49.4603C241.454 49.0721 240.941 48.92 240.382 48.92V49.42V49.92C240.752 49.92 240.997 50.0154 241.18 50.1878C241.375 50.3723 241.559 50.6999 241.686 51.2757C241.944 52.4407 241.925 54.3765 241.624 57.4107L242.122 57.46ZM240.382 49.42V48.92C238.835 48.92 237.181 49.7799 235.46 51.6709C233.736 53.5645 231.895 56.544 229.964 60.9181L230.422 61.12L230.879 61.3219C232.789 56.996 234.578 54.1255 236.199 52.3441C237.823 50.5601 239.229 49.92 240.382 49.92V49.42ZM230.422 61.12L229.937 60.9982L226.637 74.1382L227.122 74.26L227.607 74.3818L230.907 61.2418L230.422 61.12ZM227.122 74.26L227.02 73.7704L223.84 74.4304L223.942 74.92L224.043 75.4096L227.223 74.7496L227.122 74.26ZM223.942 74.92L224.427 75.0413L230.667 50.0813L230.182 49.96L229.697 49.8387L223.457 74.7987L223.942 74.92ZM230.182 49.96L229.913 49.5382L222.653 54.1582L222.922 54.58L223.19 55.0018L230.45 50.3818L230.182 49.96ZM222.922 54.58L223.386 54.3943L223.266 54.0943L222.802 54.28L222.338 54.4657L222.458 54.7657L222.922 54.58ZM222.802 54.28L223.175 54.6127C225.608 51.8837 228.325 49.5236 231.505 47.7571L231.262 47.32L231.019 46.8829C227.719 48.7164 224.916 51.1563 222.429 53.9473L222.802 54.28ZM231.262 47.32L231.224 47.8185C231.888 47.8696 232.308 48.1272 232.534 48.4861C232.766 48.8551 232.857 49.4343 232.639 50.2512L233.122 50.38L233.605 50.5088C233.867 49.5257 233.808 48.6349 233.38 47.9539C232.946 47.2628 232.196 46.8904 231.3 46.8215L231.262 47.32ZM233.122 50.38L232.637 50.2596L230.777 57.7596L231.262 57.88L231.747 58.0004L233.607 50.5004L233.122 50.38ZM231.262 57.88L231.716 58.0887C233.233 54.7877 234.914 52.128 236.69 50.301C238.468 48.4728 240.297 47.52 242.122 47.52V47.02V46.52C239.927 46.52 237.856 47.6672 235.973 49.604C234.089 51.542 232.351 54.3123 230.808 57.6712L231.262 57.88ZM263.075 73.06L262.59 72.9369L262.224 74.3771L263.386 73.451L263.075 73.06ZM270.755 66.94L271.055 66.54L270.745 66.308L270.443 66.549L270.755 66.94ZM270.995 67.12L271.437 67.3534L271.636 66.976L271.295 66.72L270.995 67.12ZM260.015 73L260.493 73.1437L260.497 73.1318L260.5 73.1198L260.015 73ZM262.295 63.76L262.78 63.8798L261.855 63.5219L262.295 63.76ZM265.895 49.3L265.52 49.6313L266.138 50.3293L266.378 49.4288L265.895 49.3ZM266.135 48.4L265.986 47.9225L265.723 48.0043L265.651 48.2712L266.135 48.4ZM269.615 47.32L270.099 47.4431L270.319 46.5779L269.466 46.8425L269.615 47.32ZM262.955 61.12L263.397 61.3534L263.425 61.3006L263.439 61.2427L262.955 61.12ZM265.355 51.64L265.839 51.7627L265.876 51.6174L265.827 51.4757L265.355 51.64ZM263.075 73.06L263.386 73.451L271.066 67.331L270.755 66.94L270.443 66.549L262.763 72.669L263.075 73.06ZM270.755 66.94L270.455 67.34L270.695 67.52L270.995 67.12L271.295 66.72L271.055 66.54L270.755 66.94ZM270.995 67.12L270.552 66.8866C270.298 67.3686 269.737 68.099 268.979 68.9442C268.229 69.7797 267.313 70.6977 266.376 71.55C265.437 72.4035 264.486 73.1824 263.666 73.7445C263.256 74.026 262.888 74.2464 262.578 74.3946C262.255 74.5489 262.045 74.6 261.935 74.6V75.1V75.6C262.274 75.6 262.649 75.4692 263.009 75.2968C263.383 75.1183 263.798 74.8672 264.232 74.5692C265.102 73.9726 266.09 73.1615 267.048 72.29C268.008 71.4173 268.949 70.4753 269.723 69.6121C270.489 68.7585 271.121 67.9514 271.437 67.3534L270.995 67.12ZM261.935 75.1V74.6C261.382 74.6 260.953 74.4115 260.705 74.1537C260.472 73.911 260.364 73.574 260.493 73.1437L260.015 73L259.536 72.8563C259.305 73.626 259.497 74.339 259.984 74.8463C260.456 75.3385 261.167 75.6 261.935 75.6V75.1ZM260.015 73L260.5 73.1198L262.78 63.8798L262.295 63.76L261.809 63.6402L259.529 72.8802L260.015 73ZM262.295 63.76L261.855 63.5219C259.923 67.0881 257.824 69.8748 255.783 71.7629C253.729 73.6617 251.791 74.6 250.175 74.6V75.1V75.6C252.158 75.6 254.33 74.4683 256.462 72.4971C258.605 70.5152 260.766 67.6319 262.734 63.9981L262.295 63.76ZM250.175 75.1V74.6C248.808 74.6 247.706 74.0357 246.923 72.8582C246.123 71.6535 245.635 69.771 245.635 67.12H245.135H244.635C244.635 69.869 245.136 71.9765 246.091 73.4118C247.063 74.8743 248.481 75.6 250.175 75.6V75.1ZM245.135 67.12H245.635C245.635 61.8318 247.457 56.9151 250.261 53.3279C253.069 49.7357 256.821 47.52 260.675 47.52V47.02V46.52C256.428 46.52 252.41 48.9542 249.473 52.7121C246.532 56.4749 244.635 61.6082 244.635 67.12H245.135ZM260.675 47.02V47.52C262.586 47.52 264.244 48.189 265.52 49.6313L265.895 49.3L266.269 48.9687C264.785 47.291 262.843 46.52 260.675 46.52V47.02ZM265.895 49.3L266.378 49.4288L266.618 48.5288L266.135 48.4L265.651 48.2712L265.411 49.1712L265.895 49.3ZM266.135 48.4L266.283 48.8775L269.763 47.7975L269.615 47.32L269.466 46.8425L265.986 47.9225L266.135 48.4ZM269.615 47.32L269.13 47.1969L262.59 72.9369L263.075 73.06L263.559 73.1831L270.099 47.4431L269.615 47.32ZM251.915 72.64V73.14C253.418 73.14 255.156 72.3239 257.062 70.4793C258.974 68.6292 261.103 65.6993 263.397 61.3534L262.955 61.12L262.512 60.8866C260.246 65.1807 258.175 68.0108 256.367 69.7607C254.553 71.5161 253.051 72.14 251.915 72.14V72.64ZM262.955 61.12L263.439 61.2427L265.839 51.7627L265.355 51.64L264.87 51.5173L262.47 60.9973L262.955 61.12ZM265.355 51.64L265.827 51.4757C265.32 50.0191 264.562 48.9675 263.625 48.2816C262.687 47.5952 261.605 47.3 260.495 47.3V47.8V48.3C261.424 48.3 262.292 48.5448 263.034 49.0884C263.777 49.6325 264.429 50.5009 264.882 51.8043L265.355 51.64ZM260.495 47.8V47.3C256.802 47.3 253.656 50.1692 251.467 53.9389C249.264 57.733 247.935 62.5893 247.935 66.88H248.435H248.935C248.935 62.7707 250.215 58.087 252.332 54.4411C254.463 50.7708 257.347 48.3 260.495 48.3V47.8ZM248.435 66.88H247.935C247.935 68.9542 248.252 70.509 248.92 71.5587C249.615 72.6496 250.655 73.14 251.915 73.14V72.64V72.14C250.954 72.14 250.254 71.7904 249.764 71.0213C249.247 70.211 248.935 68.8858 248.935 66.88H248.435ZM278.051 73L278.382 72.6255L277.764 72.0785L277.566 72.8799L278.051 73ZM275.051 85.12L274.566 84.9999L274.437 85.5183L274.963 85.6122L275.051 85.12ZM280.631 86.2H281.131V85.8168L280.761 85.7172L280.631 86.2ZM280.631 86.5V87H281.131V86.5H280.631ZM267.731 86.5H267.231V87H267.731V86.5ZM267.731 86.2L267.591 85.72L267.231 85.825V86.2H267.731ZM271.991 85.12L272.112 85.6051L272.403 85.5324L272.476 85.2417L271.991 85.12ZM280.811 49.96L281.296 50.0817L281.597 48.8837L280.547 49.5352L280.811 49.96ZM273.371 54.58L272.942 54.8372L273.204 55.2726L273.635 55.0048L273.371 54.58ZM273.191 54.28L272.822 53.9425L272.571 54.2176L272.762 54.5372L273.191 54.28ZM281.831 47.32L281.868 46.8214L281.719 46.8103L281.588 46.8829L281.831 47.32ZM283.691 50.44L283.207 50.3151L283.206 50.3196L283.691 50.44ZM281.651 58.66L281.166 58.5396L282.088 58.9023L281.651 58.66ZM280.991 61.36L280.55 61.125L280.521 61.1782L280.507 61.2366L280.991 61.36ZM278.531 71.02L278.047 70.8966L278.001 71.0741L278.081 71.2387L278.531 71.02ZM283.931 75.1V74.6C281.526 74.6 279.846 73.9199 278.382 72.6255L278.051 73L277.72 73.3745C279.377 74.8401 281.296 75.6 283.931 75.6V75.1ZM278.051 73L277.566 72.8799L274.566 84.9999L275.051 85.12L275.536 85.2401L278.536 73.1201L278.051 73ZM275.051 85.12L274.963 85.6122C276.667 85.9165 278.969 86.2703 280.501 86.6828L280.631 86.2L280.761 85.7172C279.173 85.2897 276.795 84.9235 275.139 84.6278L275.051 85.12ZM280.631 86.2H280.131V86.5H280.631H281.131V86.2H280.631ZM280.631 86.5V86H267.731V86.5V87H280.631V86.5ZM267.731 86.5H268.231V86.2H267.731H267.231V86.5H267.731ZM267.731 86.2L267.871 86.68C269.299 86.2635 270.893 85.9099 272.112 85.6051L271.991 85.12L271.87 84.6349C270.689 84.9301 269.043 85.2965 267.591 85.72L267.731 86.2ZM271.991 85.12L272.476 85.2417L281.296 50.0817L280.811 49.96L280.326 49.8383L271.506 84.9983L271.991 85.12ZM280.811 49.96L280.547 49.5352L273.107 54.1552L273.371 54.58L273.635 55.0048L281.075 50.3848L280.811 49.96ZM273.371 54.58L273.8 54.3228L273.62 54.0228L273.191 54.28L272.762 54.5372L272.942 54.8372L273.371 54.58ZM273.191 54.28L273.56 54.6175C276.11 51.8304 278.889 49.5267 282.074 47.7571L281.831 47.32L281.588 46.8829C278.294 48.7133 275.432 51.0896 272.822 53.9425L273.191 54.28ZM281.831 47.32L281.794 47.8186C282.492 47.8703 282.905 48.1298 283.121 48.4865C283.347 48.8602 283.429 49.456 283.207 50.3151L283.691 50.44L284.175 50.5649C284.434 49.564 284.395 48.6598 283.976 47.9685C283.547 47.2602 282.79 46.8897 281.868 46.8214L281.831 47.32ZM283.691 50.44L283.206 50.3196L281.166 58.5396L281.651 58.66L282.136 58.7804L284.176 50.5604L283.691 50.44ZM281.651 58.66L282.088 58.9023C284.232 55.0317 286.405 52.1727 288.51 50.2874C290.616 48.4002 292.617 47.52 294.431 47.52V47.02V46.52C292.285 46.52 290.056 47.5597 287.842 49.5426C285.627 51.5273 283.39 54.4883 281.214 58.4177L281.651 58.66ZM294.431 47.02V47.52C296.038 47.52 297.229 48.1749 298.041 49.4097C298.872 50.6743 299.331 52.5872 299.331 55.12H299.831H300.331C300.331 52.4928 299.86 50.3557 298.876 48.8603C297.873 47.3351 296.364 46.52 294.431 46.52V47.02ZM299.831 55.12H299.331C299.331 66.4582 291.909 74.6 283.931 74.6V75.1V75.6C292.633 75.6 300.331 66.8218 300.331 55.12H299.831ZM292.751 49.36V48.86C291.054 48.86 289.227 49.6298 287.224 51.5325C285.226 53.4301 283.022 56.4829 280.55 61.125L280.991 61.36L281.432 61.595C283.881 56.9971 286.026 54.0499 287.913 52.2575C289.795 50.4702 291.388 49.86 292.751 49.86V49.36ZM280.991 61.36L280.507 61.2366L278.047 70.8966L278.531 71.02L279.016 71.1434L281.476 61.4834L280.991 61.36ZM278.531 71.02L278.081 71.2387C278.659 72.4268 279.459 73.3163 280.47 73.9046C281.477 74.4911 282.664 74.76 283.991 74.76V74.26V73.76C282.798 73.76 281.795 73.5189 280.973 73.0404C280.153 72.5637 279.483 71.8332 278.981 70.8013L278.531 71.02ZM283.991 74.26V74.76C287.795 74.76 291.066 72.2996 293.36 68.7013C295.659 65.0961 297.031 60.2761 297.031 55.36H296.531H296.031C296.031 60.1039 294.704 64.7339 292.517 68.1637C290.326 71.6004 287.327 73.76 283.991 73.76V74.26ZM296.531 55.36H297.031C297.031 53.3867 296.777 51.7743 296.106 50.6426C295.765 50.0668 295.315 49.6135 294.741 49.3078C294.17 49.0036 293.505 48.86 292.751 48.86V49.36V49.86C293.378 49.86 293.874 49.9789 294.271 50.1903C294.665 50.4003 294.987 50.7157 295.246 51.1524C295.775 52.0457 296.031 53.4333 296.031 55.36H296.531ZM313.098 75.1V74.6C310.357 74.6 308.209 73.5639 306.736 71.7476C305.254 69.9189 304.418 67.2518 304.418 63.94H303.918H303.418C303.418 67.4082 304.293 70.3211 305.96 72.3774C307.637 74.4461 310.08 75.6 313.098 75.6V75.1ZM303.918 63.94H304.418C304.418 54.9402 310.581 47.52 317.898 47.52V47.02V46.52C309.855 46.52 303.418 54.5798 303.418 63.94H303.918ZM317.898 47.02V47.52C320.669 47.52 322.816 48.5703 324.281 50.3933C325.757 52.2295 326.578 54.8971 326.578 58.18H327.078H327.578C327.578 54.7429 326.719 51.8305 325.06 49.7667C323.391 47.6897 320.948 46.52 317.898 46.52V47.02ZM327.078 58.18H326.578C326.578 67.1798 320.415 74.6 313.098 74.6V75.1V75.6C321.141 75.6 327.578 67.5402 327.578 58.18H327.078ZM313.218 74.2V74.7C316.534 74.7 319.323 72.3632 321.255 69.0678C323.194 65.7587 324.338 61.3798 324.338 57.04H323.838H323.338C323.338 61.2202 322.232 65.4213 320.392 68.5622C318.543 71.7168 316.022 73.7 313.218 73.7V74.2ZM323.838 57.04H324.338C324.338 54.201 323.821 51.8136 322.745 50.1194C321.652 48.3977 319.995 47.42 317.838 47.42V47.92V48.42C319.641 48.42 320.984 49.2122 321.901 50.6555C322.835 52.1264 323.338 54.299 323.338 57.04H323.838ZM317.838 47.92V47.42C314.494 47.42 311.69 49.7543 309.75 53.0435C307.803 56.3454 306.658 60.7097 306.658 65.02H307.158H307.658C307.658 60.8703 308.764 56.6846 310.611 53.5515C312.467 50.4057 315.002 48.42 317.838 48.42V47.92ZM307.158 65.02H306.658C306.658 67.9195 307.19 70.3233 308.283 72.0184C309.393 73.7408 311.065 74.7 313.218 74.7V74.2V73.7C311.411 73.7 310.053 72.9192 309.123 71.4766C308.176 70.0067 307.658 67.8205 307.658 65.02H307.158ZM352.932 47.92L353.415 48.0477L353.501 47.7221L353.232 47.52L352.932 47.92ZM350.412 57.46V57.96H350.797L350.895 57.5877L350.412 57.46ZM350.052 57.46L349.554 57.4107L349.5 57.96H350.052V57.46ZM338.352 61.12L337.894 60.9181L337.877 60.957L337.867 60.9982L338.352 61.12ZM335.052 74.26L335.153 74.7496L335.46 74.6859L335.536 74.3818L335.052 74.26ZM331.872 74.92L331.386 74.7987L331.193 75.5714L331.973 75.4096L331.872 74.92ZM338.112 49.96L338.597 50.0813L338.901 48.8652L337.843 49.5382L338.112 49.96ZM330.852 54.58L330.387 54.7657L330.611 55.3256L331.12 55.0018L330.852 54.58ZM330.732 54.28L330.358 53.9473L330.152 54.1783L330.267 54.4657L330.732 54.28ZM339.192 47.32L339.23 46.8215L339.08 46.8099L338.949 46.8829L339.192 47.32ZM341.052 50.38L340.568 50.2511L340.566 50.2596L341.052 50.38ZM339.192 57.88L338.706 57.7596L339.646 58.0887L339.192 57.88ZM350.052 47.02V47.52C351.09 47.52 352.003 47.8488 352.632 48.32L352.932 47.92L353.232 47.52C352.42 46.9112 351.293 46.52 350.052 46.52V47.02ZM352.932 47.92L352.448 47.7923L349.928 57.3323L350.412 57.46L350.895 57.5877L353.415 48.0477L352.932 47.92ZM350.412 57.46V56.96H350.052V57.46V57.96H350.412V57.46ZM350.052 57.46L350.549 57.5093C350.849 54.4835 350.889 52.3993 350.592 51.0593C350.442 50.3826 350.194 49.8364 349.796 49.4603C349.384 49.0721 348.871 48.92 348.312 48.92V49.42V49.92C348.682 49.92 348.927 50.0154 349.109 50.1878C349.305 50.3723 349.488 50.6999 349.616 51.2757C349.874 52.4407 349.854 54.3765 349.554 57.4107L350.052 57.46ZM348.312 49.42V48.92C346.764 48.92 345.111 49.7799 343.389 51.6709C341.666 53.5645 339.825 56.544 337.894 60.9181L338.352 61.12L338.809 61.3219C340.718 56.996 342.507 54.1255 344.129 52.3441C345.753 50.5601 347.159 49.92 348.312 49.92V49.42ZM338.352 61.12L337.867 60.9982L334.567 74.1382L335.052 74.26L335.536 74.3818L338.837 61.2418L338.352 61.12ZM335.052 74.26L334.95 73.7704L331.77 74.4304L331.872 74.92L331.973 75.4096L335.153 74.7496L335.052 74.26ZM331.872 74.92L332.357 75.0413L338.597 50.0813L338.112 49.96L337.626 49.8387L331.386 74.7987L331.872 74.92ZM338.112 49.96L337.843 49.5382L330.583 54.1582L330.852 54.58L331.12 55.0018L338.38 50.3818L338.112 49.96ZM330.852 54.58L331.316 54.3943L331.196 54.0943L330.732 54.28L330.267 54.4657L330.387 54.7657L330.852 54.58ZM330.732 54.28L331.105 54.6127C333.537 51.8837 336.255 49.5236 339.434 47.7571L339.192 47.32L338.949 46.8829C335.648 48.7164 332.846 51.1563 330.358 53.9473L330.732 54.28ZM339.192 47.32L339.153 47.8185C339.817 47.8696 340.238 48.1272 340.463 48.4861C340.695 48.8551 340.786 49.4343 340.568 50.2512L341.052 50.38L341.535 50.5088C341.797 49.5257 341.738 48.6349 341.31 47.9539C340.875 47.2628 340.126 46.8904 339.23 46.8215L339.192 47.32ZM341.052 50.38L340.566 50.2596L338.706 57.7596L339.192 57.88L339.677 58.0004L341.537 50.5004L341.052 50.38ZM339.192 57.88L339.646 58.0887C341.163 54.7877 342.844 52.128 344.62 50.301C346.397 48.4728 348.226 47.52 350.052 47.52V47.02V46.52C347.857 46.52 345.786 47.6672 343.903 49.604C342.019 51.542 340.281 54.3123 338.737 57.6712L339.192 57.88ZM372.444 66.16L372.701 65.7313L372.351 65.5208L372.075 65.8229L372.444 66.16ZM372.744 66.34L373.168 66.605L373.438 66.1732L373.001 65.9113L372.744 66.34ZM356.784 62.56L356.711 62.0655L356.314 62.1245L356.285 62.5244L356.784 62.56ZM356.904 61.72L356.41 61.6431L356.303 62.3309L356.989 62.2127L356.904 61.72ZM361.764 73.12V73.62C364.75 73.62 367.758 72.0344 372.813 66.4971L372.444 66.16L372.075 65.8229C367.051 71.3256 364.299 72.62 361.764 72.62V73.12ZM372.444 66.16L372.187 66.5887L372.487 66.7687L372.744 66.34L373.001 65.9113L372.701 65.7313L372.444 66.16ZM372.744 66.34L372.32 66.075C368.167 72.7201 364.522 74.6 360.984 74.6V75.1V75.6C365.007 75.6 368.921 73.3999 373.168 66.605L372.744 66.34ZM360.984 75.1V74.6C358.837 74.6 357.081 73.8146 355.852 72.3088C354.612 70.7906 353.864 68.4862 353.864 65.38H353.364H352.864C352.864 68.6338 353.647 71.1894 355.077 72.9412C356.517 74.7054 358.572 75.6 360.984 75.6V75.1ZM353.364 65.38H353.864C353.864 55.3773 361.153 47.52 368.484 47.52V47.02V46.52C360.455 46.52 352.864 54.9827 352.864 65.38H353.364ZM368.484 47.02V47.52C370.224 47.52 371.603 48.0046 372.536 48.7839C373.463 49.5573 373.984 50.6458 373.984 51.94H374.484H374.984C374.984 50.3542 374.335 48.9827 373.177 48.0161C372.026 47.0554 370.404 46.52 368.484 46.52V47.02ZM374.484 51.94H373.984C373.984 54.1525 372.546 56.2527 369.605 58.0376C366.668 59.82 362.315 61.2307 356.711 62.0655L356.784 62.56L356.858 63.0545C362.533 62.2093 367.03 60.77 370.124 58.8924C373.213 57.0173 374.984 54.6475 374.984 51.94H374.484ZM356.784 62.56L356.285 62.5244C356.226 63.3614 356.164 64.2192 356.164 65.08H356.664H357.164C357.164 64.2608 357.223 63.4386 357.283 62.5956L356.784 62.56ZM356.664 65.08H356.164C356.164 68.1016 356.742 70.2334 357.752 71.6217C358.781 73.0348 360.216 73.62 361.764 73.62V73.12V72.62C360.493 72.62 359.378 72.1552 358.561 71.0333C357.726 69.8866 357.164 67.9984 357.164 65.08H356.664ZM368.124 47.86V47.36C365.213 47.36 362.563 49.1199 360.522 51.7376C358.477 54.3621 356.992 57.9088 356.41 61.6431L356.904 61.72L357.398 61.7969C357.957 58.2112 359.382 54.8279 361.311 52.3524C363.246 49.8701 365.636 48.36 368.124 48.36V47.86ZM356.904 61.72L356.989 62.2127C367.838 60.3443 372.104 55.6959 372.104 51.52H371.604H371.104C371.104 54.9041 367.57 59.3757 356.819 61.2273L356.904 61.72ZM371.604 51.52H372.104C372.104 50.3302 371.799 49.2795 371.112 48.5218C370.419 47.756 369.4 47.36 368.124 47.36V47.86V48.36C369.188 48.36 369.91 48.684 370.371 49.1932C370.84 49.7105 371.104 50.4898 371.104 51.52H371.604Z" fill="black" mask="url(#path-2-outside-1_346_46)"/>
</svg>
