<svg width="157" height="152" viewBox="0 0 157 152" fill="none" xmlns="http://www.w3.org/2000/svg">
<path d="M127.31 38.2831L127.31 72.5C127.31 75.0476 127.31 75.0476 129.543 75.0476C137.662 75.0476 145.78 75.0476 153.899 75.0637C154.695 75.0637 155.923 74.6764 155.997 76.0063C156.067 77.2615 154.844 77.184 154.034 77.3095C146.314 78.5113 138.993 81.1524 131.922 84.7682C126.135 87.7085 120.728 91.4969 115.846 96.0323C109.131 102.239 103.466 109.728 99.1185 118.147C94.1459 127.84 91.0359 138.221 89.4761 149.204C89.368 149.976 89.4977 151.074 88.4643 150.996C87.4693 150.913 87.6447 149.821 87.6447 149.044C87.6319 133.01 87.6319 116.976 87.6447 100.941C87.6447 99.6054 87.6447 98.2701 87.6447 96.9349C87.6447 96.5717 87.7337 96.0937 87.3179 95.9468C86.9982 95.8347 86.7988 96.2139 86.5704 96.4142C79.9251 102.476 74.5655 109.767 70.2466 117.973C66.5697 124.994 63.8347 132.573 62.128 140.472C61.453 143.43 60.933 146.43 60.5706 149.455C60.4936 150.142 60.3999 150.868 59.59 150.86C58.6983 150.86 58.792 150.059 58.768 149.391C58.7512 148.916 58.768 148.438 58.768 147.96L58.768 98.2888C58.768 97.8589 58.7824 97.4289 58.768 97.0017C58.7488 96.6358 58.8786 96.1605 58.4892 95.9789C58.0999 95.7973 57.8547 96.2059 57.612 96.4409C54.7621 99.1209 52.0869 102.022 49.6063 105.123C45.2798 110.625 41.6314 116.742 38.7574 123.314C35.1956 131.48 32.7489 140.039 31.6938 149.068C31.6707 149.304 31.6306 149.538 31.5737 149.768C31.4271 150.339 31.2348 150.905 30.5738 150.86C29.9129 150.815 29.7543 150.251 29.711 149.648C29.675 149.113 29.6798 148.598 29.6798 148.075L29.6798 79.4913C29.6798 77.0371 29.6798 77.0371 27.4879 77.0371H4.17502C3.78807 77.0371 3.39872 77.0692 3.01658 77.0371C2.2523 76.957 1.09387 77.3656 1.00495 76.1319C0.913617 74.7966 2.1081 75.1812 2.85075 75.0183C6.09292 74.3026 9.3399 73.683 12.5364 72.6709C19.0309 70.6365 25.2694 67.7027 31.105 63.9384C35.3776 61.1833 39.3828 57.9456 43.0571 54.2766C48.8612 48.4577 53.829 41.8509 57.7346 34.3014C61.3585 27.3099 64.074 19.7838 65.8003 11.9469C66.4877 8.83307 66.9636 5.68991 67.4827 2.54942C67.5885 1.9272 67.6221 1.21419 68.3816 1.23288C69.2011 1.24623 69.266 1.98862 69.3045 2.67226C69.3333 3.14761 69.3213 3.6283 69.3213 4.10365L69.3213 53.9241C69.3213 54.3541 69.3213 54.784 69.3213 55.214C69.3357 55.5344 69.2564 55.935 69.5929 56.1032C69.9294 56.2715 70.1336 55.9216 70.3548 55.7214C73.5224 52.8661 76.4409 49.6858 79.0718 46.2225C84.3437 39.29 88.5706 31.4549 91.5887 23.0213C93.8888 16.5899 95.4842 9.87434 96.3402 3.01942L96.3931 2.59482C96.4844 1.91118 96.5829 1.16878 97.4121 1.25958C98.2413 1.35037 98.1716 2.14085 98.198 2.80046C98.2173 3.27847 98.198 3.75648 98.198 4.23183C98.198 20.8867 98.202 37.5416 98.21 54.1965C98.21 54.8615 97.8543 55.8148 98.5681 56.1353C99.1642 56.4023 99.568 55.5505 100.01 55.1285C104.598 50.803 108.676 45.85 112.145 40.3875C115.482 35.0596 118.274 29.3353 120.47 23.3204C122.655 17.4187 123.948 11.2525 125.121 5.04097C125.296 4.11432 125.335 3.15295 125.477 2.21562C125.561 1.6655 125.791 1.18213 126.402 1.26758C126.955 1.34503 127.205 1.8017 127.255 2.36516C127.294 2.88831 127.308 3.41328 127.298 3.93806L127.31 38.2831Z" fill="#18293A" stroke="#231F20" stroke-miterlimit="10"/>
</svg>
